M48
; DRILL file {KiCad (5.1.12)-1} date 08/06/22 16:25:28
; FORMAT={-:-/ absolute / metric / decimal}
; #@! TF.CreationDate,2022-08-06T16:25:28+02:00
; #@! TF.GenerationSoftware,Kicad,Pcbnew,(5.1.12)-1
; #@! TF.FileFunction,Plated,1,2,PTH
FMAT,2
METRIC
T1C0.400
T2C0.760
T3C1.000
T4C1.320
T5C1.520
T6C4.000
%
G90
G05
T1
X97.275Y-101.925
X103.4Y-92.8
X104.565Y-100.435
X108.4Y-101.2
X110.035Y-99.165
X113.8Y-98.2
X120.0Y-84.0
X137.0Y-76.0
X151.6Y-84.0
T2
X124.23Y-96.59
X124.23Y-99.13
X124.23Y-101.67
X124.23Y-104.21
X132.17Y-96.59
X132.17Y-99.13
X132.17Y-101.67
X132.17Y-104.21
T3
X101.24Y-81.2
X103.78Y-81.2
X104.66Y-111.0
X106.32Y-81.2
X107.2Y-111.0
X108.86Y-81.2
X109.74Y-111.0
X111.4Y-81.2
X112.28Y-111.0
X114.82Y-111.0
X119.8Y-111.0
X122.34Y-111.0
T4
X127.0Y-81.2
X129.55Y-81.2
X132.1Y-81.2
T5
X148.0Y-92.16
X148.0Y-97.24
X148.0Y-102.32
X148.0Y-107.4
T6
X95.0Y-77.0
X138.0Y-110.0
T0
M30
