%FSLAX45Y45*%
G04 Gerber Fmt 4.5, Leading zero omitted, Abs format (unit mm)*
G04 Created by KiCad (PCBNEW (5.1.12)-1) date 2022-08-06 16:25:29*
%MOMM*%
%LPD*%
G01*
G04 APERTURE LIST*
%TA.AperFunction,Profile*%
%ADD10C,0.050000*%
%TD*%
%ADD11C,0.200000*%
%ADD12C,0.300000*%
G04 APERTURE END LIST*
D10*
X15400000Y-7200000D02*
X9000000Y-7200000D01*
X15400000Y-11500000D02*
X15400000Y-7200000D01*
X9000000Y-11500000D02*
X15400000Y-11500000D01*
X9000000Y-7200000D02*
X9000000Y-11500000D01*
D11*
D12*
X9283928Y-11968214D02*
X9283928Y-11668214D01*
X9355357Y-11668214D01*
X9398214Y-11682500D01*
X9426786Y-11711071D01*
X9441071Y-11739643D01*
X9455357Y-11796786D01*
X9455357Y-11839643D01*
X9441071Y-11896786D01*
X9426786Y-11925357D01*
X9398214Y-11953929D01*
X9355357Y-11968214D01*
X9283928Y-11968214D01*
X9583928Y-11968214D02*
X9583928Y-11768214D01*
X9583928Y-11825357D02*
X9598214Y-11796786D01*
X9612500Y-11782500D01*
X9641071Y-11768214D01*
X9669643Y-11768214D01*
X9769643Y-11968214D02*
X9769643Y-11768214D01*
X9769643Y-11668214D02*
X9755357Y-11682500D01*
X9769643Y-11696786D01*
X9783928Y-11682500D01*
X9769643Y-11668214D01*
X9769643Y-11696786D01*
X9955357Y-11968214D02*
X9926786Y-11953929D01*
X9912500Y-11925357D01*
X9912500Y-11668214D01*
X10112500Y-11968214D02*
X10083928Y-11953929D01*
X10069643Y-11925357D01*
X10069643Y-11668214D01*
X10455357Y-11968214D02*
X10455357Y-11668214D01*
X10555357Y-11882500D01*
X10655357Y-11668214D01*
X10655357Y-11968214D01*
X10926786Y-11968214D02*
X10926786Y-11811071D01*
X10912500Y-11782500D01*
X10883928Y-11768214D01*
X10826786Y-11768214D01*
X10798214Y-11782500D01*
X10926786Y-11953929D02*
X10898214Y-11968214D01*
X10826786Y-11968214D01*
X10798214Y-11953929D01*
X10783928Y-11925357D01*
X10783928Y-11896786D01*
X10798214Y-11868214D01*
X10826786Y-11853929D01*
X10898214Y-11853929D01*
X10926786Y-11839643D01*
X11069643Y-11768214D02*
X11069643Y-12068214D01*
X11069643Y-11782500D02*
X11098214Y-11768214D01*
X11155357Y-11768214D01*
X11183928Y-11782500D01*
X11198214Y-11796786D01*
X11212500Y-11825357D01*
X11212500Y-11911071D01*
X11198214Y-11939643D01*
X11183928Y-11953929D01*
X11155357Y-11968214D01*
X11098214Y-11968214D01*
X11069643Y-11953929D01*
X11341071Y-11939643D02*
X11355357Y-11953929D01*
X11341071Y-11968214D01*
X11326786Y-11953929D01*
X11341071Y-11939643D01*
X11341071Y-11968214D01*
X11341071Y-11782500D02*
X11355357Y-11796786D01*
X11341071Y-11811071D01*
X11326786Y-11796786D01*
X11341071Y-11782500D01*
X11341071Y-11811071D01*
M02*
