%TF.GenerationSoftware,KiCad,Pcbnew,(5.1.12)-1*%
%TF.CreationDate,2022-08-06T16:25:20+02:00*%
%TF.ProjectId,Konwerter,4b6f6e77-6572-4746-9572-2e6b69636164,rev?*%
%TF.SameCoordinates,Original*%
%TF.FileFunction,Soldermask,Top*%
%TF.FilePolarity,Negative*%
%FSLAX46Y46*%
G04 Gerber Fmt 4.6, Leading zero omitted, Abs format (unit mm)*
G04 Created by KiCad (PCBNEW (5.1.12)-1) date 2022-08-06 16:25:20*
%MOMM*%
%LPD*%
G01*
G04 APERTURE LIST*
%ADD10O,1.700000X1.700000*%
%ADD11R,1.700000X1.700000*%
%ADD12C,4.000000*%
%ADD13C,3.000000*%
%ADD14R,3.000000X3.000000*%
%ADD15C,1.980000*%
%ADD16R,1.980000X1.980000*%
%ADD17R,1.525000X0.650000*%
%ADD18C,1.160000*%
%ADD19R,1.160000X1.160000*%
G04 APERTURE END LIST*
D10*
X122340000Y-111000000D03*
D11*
X119800000Y-111000000D03*
D12*
X95000000Y-77000000D03*
X138000000Y-110000000D03*
G36*
G01*
X116425001Y-99700000D02*
X115174999Y-99700000D01*
G75*
G02*
X114925000Y-99450001I0J249999D01*
G01*
X114925000Y-98649999D01*
G75*
G02*
X115174999Y-98400000I249999J0D01*
G01*
X116425001Y-98400000D01*
G75*
G02*
X116675000Y-98649999I0J-249999D01*
G01*
X116675000Y-99450001D01*
G75*
G02*
X116425001Y-99700000I-249999J0D01*
G01*
G37*
G36*
G01*
X116425001Y-102800000D02*
X115174999Y-102800000D01*
G75*
G02*
X114925000Y-102550001I0J249999D01*
G01*
X114925000Y-101749999D01*
G75*
G02*
X115174999Y-101500000I249999J0D01*
G01*
X116425001Y-101500000D01*
G75*
G02*
X116675000Y-101749999I0J-249999D01*
G01*
X116675000Y-102550001D01*
G75*
G02*
X116425001Y-102800000I-249999J0D01*
G01*
G37*
G36*
G01*
X103974999Y-106700000D02*
X105225001Y-106700000D01*
G75*
G02*
X105475000Y-106949999I0J-249999D01*
G01*
X105475000Y-107750001D01*
G75*
G02*
X105225001Y-108000000I-249999J0D01*
G01*
X103974999Y-108000000D01*
G75*
G02*
X103725000Y-107750001I0J249999D01*
G01*
X103725000Y-106949999D01*
G75*
G02*
X103974999Y-106700000I249999J0D01*
G01*
G37*
G36*
G01*
X103974999Y-103600000D02*
X105225001Y-103600000D01*
G75*
G02*
X105475000Y-103849999I0J-249999D01*
G01*
X105475000Y-104650001D01*
G75*
G02*
X105225001Y-104900000I-249999J0D01*
G01*
X103974999Y-104900000D01*
G75*
G02*
X103725000Y-104650001I0J249999D01*
G01*
X103725000Y-103849999D01*
G75*
G02*
X103974999Y-103600000I249999J0D01*
G01*
G37*
G36*
G01*
X138574999Y-100900000D02*
X139825001Y-100900000D01*
G75*
G02*
X140075000Y-101149999I0J-249999D01*
G01*
X140075000Y-101950001D01*
G75*
G02*
X139825001Y-102200000I-249999J0D01*
G01*
X138574999Y-102200000D01*
G75*
G02*
X138325000Y-101950001I0J249999D01*
G01*
X138325000Y-101149999D01*
G75*
G02*
X138574999Y-100900000I249999J0D01*
G01*
G37*
G36*
G01*
X138574999Y-97800000D02*
X139825001Y-97800000D01*
G75*
G02*
X140075000Y-98049999I0J-249999D01*
G01*
X140075000Y-98850001D01*
G75*
G02*
X139825001Y-99100000I-249999J0D01*
G01*
X138574999Y-99100000D01*
G75*
G02*
X138325000Y-98850001I0J249999D01*
G01*
X138325000Y-98049999D01*
G75*
G02*
X138574999Y-97800000I249999J0D01*
G01*
G37*
G36*
G01*
X101974999Y-101300000D02*
X103225001Y-101300000D01*
G75*
G02*
X103475000Y-101549999I0J-249999D01*
G01*
X103475000Y-102350001D01*
G75*
G02*
X103225001Y-102600000I-249999J0D01*
G01*
X101974999Y-102600000D01*
G75*
G02*
X101725000Y-102350001I0J249999D01*
G01*
X101725000Y-101549999D01*
G75*
G02*
X101974999Y-101300000I249999J0D01*
G01*
G37*
G36*
G01*
X101974999Y-98200000D02*
X103225001Y-98200000D01*
G75*
G02*
X103475000Y-98449999I0J-249999D01*
G01*
X103475000Y-99250001D01*
G75*
G02*
X103225001Y-99500000I-249999J0D01*
G01*
X101974999Y-99500000D01*
G75*
G02*
X101725000Y-99250001I0J249999D01*
G01*
X101725000Y-98449999D01*
G75*
G02*
X101974999Y-98200000I249999J0D01*
G01*
G37*
D13*
X148000000Y-92160000D03*
D14*
X148000000Y-107400000D03*
D13*
X148000000Y-97240000D03*
X148000000Y-102320000D03*
D10*
X114820000Y-111000000D03*
X112280000Y-111000000D03*
X109740000Y-111000000D03*
X107200000Y-111000000D03*
D11*
X104660000Y-111000000D03*
D10*
X101240000Y-81200000D03*
X103780000Y-81200000D03*
X106320000Y-81200000D03*
X108860000Y-81200000D03*
D11*
X111400000Y-81200000D03*
D15*
X132100000Y-81200000D03*
X129550000Y-81200000D03*
D16*
X127000000Y-81200000D03*
D17*
X112112000Y-97895000D03*
X112112000Y-99165000D03*
X112112000Y-100435000D03*
X112112000Y-101705000D03*
X106688000Y-101705000D03*
X106688000Y-100435000D03*
X106688000Y-99165000D03*
X106688000Y-97895000D03*
D18*
X132170000Y-96590000D03*
X132170000Y-99130000D03*
X132170000Y-101670000D03*
X132170000Y-104210000D03*
X124230000Y-104210000D03*
X124230000Y-101670000D03*
X124230000Y-99130000D03*
D19*
X124230000Y-96590000D03*
G36*
G01*
X94549998Y-101300000D02*
X95850002Y-101300000D01*
G75*
G02*
X96100000Y-101549998I0J-249998D01*
G01*
X96100000Y-102375002D01*
G75*
G02*
X95850002Y-102625000I-249998J0D01*
G01*
X94549998Y-102625000D01*
G75*
G02*
X94300000Y-102375002I0J249998D01*
G01*
X94300000Y-101549998D01*
G75*
G02*
X94549998Y-101300000I249998J0D01*
G01*
G37*
G36*
G01*
X94549998Y-98175000D02*
X95850002Y-98175000D01*
G75*
G02*
X96100000Y-98424998I0J-249998D01*
G01*
X96100000Y-99250002D01*
G75*
G02*
X95850002Y-99500000I-249998J0D01*
G01*
X94549998Y-99500000D01*
G75*
G02*
X94300000Y-99250002I0J249998D01*
G01*
X94300000Y-98424998D01*
G75*
G02*
X94549998Y-98175000I249998J0D01*
G01*
G37*
G36*
G01*
X105900000Y-92149998D02*
X105900000Y-93450002D01*
G75*
G02*
X105650002Y-93700000I-249998J0D01*
G01*
X104824998Y-93700000D01*
G75*
G02*
X104575000Y-93450002I0J249998D01*
G01*
X104575000Y-92149998D01*
G75*
G02*
X104824998Y-91900000I249998J0D01*
G01*
X105650002Y-91900000D01*
G75*
G02*
X105900000Y-92149998I0J-249998D01*
G01*
G37*
G36*
G01*
X109025000Y-92149998D02*
X109025000Y-93450002D01*
G75*
G02*
X108775002Y-93700000I-249998J0D01*
G01*
X107949998Y-93700000D01*
G75*
G02*
X107700000Y-93450002I0J249998D01*
G01*
X107700000Y-92149998D01*
G75*
G02*
X107949998Y-91900000I249998J0D01*
G01*
X108775002Y-91900000D01*
G75*
G02*
X109025000Y-92149998I0J-249998D01*
G01*
G37*
G36*
G01*
X117300000Y-107050002D02*
X117300000Y-105749998D01*
G75*
G02*
X117549998Y-105500000I249998J0D01*
G01*
X118375002Y-105500000D01*
G75*
G02*
X118625000Y-105749998I0J-249998D01*
G01*
X118625000Y-107050002D01*
G75*
G02*
X118375002Y-107300000I-249998J0D01*
G01*
X117549998Y-107300000D01*
G75*
G02*
X117300000Y-107050002I0J249998D01*
G01*
G37*
G36*
G01*
X114175000Y-107050002D02*
X114175000Y-105749998D01*
G75*
G02*
X114424998Y-105500000I249998J0D01*
G01*
X115250002Y-105500000D01*
G75*
G02*
X115500000Y-105749998I0J-249998D01*
G01*
X115500000Y-107050002D01*
G75*
G02*
X115250002Y-107300000I-249998J0D01*
G01*
X114424998Y-107300000D01*
G75*
G02*
X114175000Y-107050002I0J249998D01*
G01*
G37*
G36*
G01*
X132300000Y-75149998D02*
X132300000Y-76450002D01*
G75*
G02*
X132050002Y-76700000I-249998J0D01*
G01*
X131224998Y-76700000D01*
G75*
G02*
X130975000Y-76450002I0J249998D01*
G01*
X130975000Y-75149998D01*
G75*
G02*
X131224998Y-74900000I249998J0D01*
G01*
X132050002Y-74900000D01*
G75*
G02*
X132300000Y-75149998I0J-249998D01*
G01*
G37*
G36*
G01*
X135425000Y-75149998D02*
X135425000Y-76450002D01*
G75*
G02*
X135175002Y-76700000I-249998J0D01*
G01*
X134349998Y-76700000D01*
G75*
G02*
X134100000Y-76450002I0J249998D01*
G01*
X134100000Y-75149998D01*
G75*
G02*
X134349998Y-74900000I249998J0D01*
G01*
X135175002Y-74900000D01*
G75*
G02*
X135425000Y-75149998I0J-249998D01*
G01*
G37*
G36*
G01*
X116950000Y-87100000D02*
X115850000Y-87100000D01*
G75*
G02*
X115600000Y-86850000I0J250000D01*
G01*
X115600000Y-84350000D01*
G75*
G02*
X115850000Y-84100000I250000J0D01*
G01*
X116950000Y-84100000D01*
G75*
G02*
X117200000Y-84350000I0J-250000D01*
G01*
X117200000Y-86850000D01*
G75*
G02*
X116950000Y-87100000I-250000J0D01*
G01*
G37*
G36*
G01*
X116950000Y-91500000D02*
X115850000Y-91500000D01*
G75*
G02*
X115600000Y-91250000I0J250000D01*
G01*
X115600000Y-88750000D01*
G75*
G02*
X115850000Y-88500000I250000J0D01*
G01*
X116950000Y-88500000D01*
G75*
G02*
X117200000Y-88750000I0J-250000D01*
G01*
X117200000Y-91250000D01*
G75*
G02*
X116950000Y-91500000I-250000J0D01*
G01*
G37*
G36*
G01*
X128900000Y-76450002D02*
X128900000Y-75149998D01*
G75*
G02*
X129149998Y-74900000I249998J0D01*
G01*
X129975002Y-74900000D01*
G75*
G02*
X130225000Y-75149998I0J-249998D01*
G01*
X130225000Y-76450002D01*
G75*
G02*
X129975002Y-76700000I-249998J0D01*
G01*
X129149998Y-76700000D01*
G75*
G02*
X128900000Y-76450002I0J249998D01*
G01*
G37*
G36*
G01*
X125775000Y-76450002D02*
X125775000Y-75149998D01*
G75*
G02*
X126024998Y-74900000I249998J0D01*
G01*
X126850002Y-74900000D01*
G75*
G02*
X127100000Y-75149998I0J-249998D01*
G01*
X127100000Y-76450002D01*
G75*
G02*
X126850002Y-76700000I-249998J0D01*
G01*
X126024998Y-76700000D01*
G75*
G02*
X125775000Y-76450002I0J249998D01*
G01*
G37*
G36*
G01*
X146300000Y-84550000D02*
X146300000Y-83450000D01*
G75*
G02*
X146550000Y-83200000I250000J0D01*
G01*
X149050000Y-83200000D01*
G75*
G02*
X149300000Y-83450000I0J-250000D01*
G01*
X149300000Y-84550000D01*
G75*
G02*
X149050000Y-84800000I-250000J0D01*
G01*
X146550000Y-84800000D01*
G75*
G02*
X146300000Y-84550000I0J250000D01*
G01*
G37*
G36*
G01*
X141900000Y-84550000D02*
X141900000Y-83450000D01*
G75*
G02*
X142150000Y-83200000I250000J0D01*
G01*
X144650000Y-83200000D01*
G75*
G02*
X144900000Y-83450000I0J-250000D01*
G01*
X144900000Y-84550000D01*
G75*
G02*
X144650000Y-84800000I-250000J0D01*
G01*
X142150000Y-84800000D01*
G75*
G02*
X141900000Y-84550000I0J250000D01*
G01*
G37*
G36*
G01*
X98549998Y-101262500D02*
X99850002Y-101262500D01*
G75*
G02*
X100100000Y-101512498I0J-249998D01*
G01*
X100100000Y-102337502D01*
G75*
G02*
X99850002Y-102587500I-249998J0D01*
G01*
X98549998Y-102587500D01*
G75*
G02*
X98300000Y-102337502I0J249998D01*
G01*
X98300000Y-101512498D01*
G75*
G02*
X98549998Y-101262500I249998J0D01*
G01*
G37*
G36*
G01*
X98549998Y-98137500D02*
X99850002Y-98137500D01*
G75*
G02*
X100100000Y-98387498I0J-249998D01*
G01*
X100100000Y-99212502D01*
G75*
G02*
X99850002Y-99462500I-249998J0D01*
G01*
X98549998Y-99462500D01*
G75*
G02*
X98300000Y-99212502I0J249998D01*
G01*
X98300000Y-98387498D01*
G75*
G02*
X98549998Y-98137500I249998J0D01*
G01*
G37*
M02*
