%TF.GenerationSoftware,KiCad,Pcbnew,(5.1.12)-1*%
%TF.CreationDate,2022-08-06T16:25:20+02:00*%
%TF.ProjectId,Konwerter,4b6f6e77-6572-4746-9572-2e6b69636164,rev?*%
%TF.SameCoordinates,Original*%
%TF.FileFunction,Legend,Bot*%
%TF.FilePolarity,Positive*%
%FSLAX46Y46*%
G04 Gerber Fmt 4.6, Leading zero omitted, Abs format (unit mm)*
G04 Created by KiCad (PCBNEW (5.1.12)-1) date 2022-08-06 16:25:20*
%MOMM*%
%LPD*%
G01*
G04 APERTURE LIST*
%ADD10C,0.150000*%
%ADD11O,1.700000X1.700000*%
%ADD12R,1.700000X1.700000*%
%ADD13C,4.000000*%
%ADD14C,3.000000*%
%ADD15R,3.000000X3.000000*%
%ADD16C,1.980000*%
%ADD17R,1.980000X1.980000*%
%ADD18C,1.160000*%
%ADD19R,1.160000X1.160000*%
G04 APERTURE END LIST*
D10*
X136976190Y-88802380D02*
X136976190Y-87802380D01*
X136595238Y-87802380D01*
X136500000Y-87850000D01*
X136452380Y-87897619D01*
X136404761Y-87992857D01*
X136404761Y-88135714D01*
X136452380Y-88230952D01*
X136500000Y-88278571D01*
X136595238Y-88326190D01*
X136976190Y-88326190D01*
X135404761Y-88802380D02*
X135738095Y-88326190D01*
X135976190Y-88802380D02*
X135976190Y-87802380D01*
X135595238Y-87802380D01*
X135500000Y-87850000D01*
X135452380Y-87897619D01*
X135404761Y-87992857D01*
X135404761Y-88135714D01*
X135452380Y-88230952D01*
X135500000Y-88278571D01*
X135595238Y-88326190D01*
X135976190Y-88326190D01*
X134785714Y-87802380D02*
X134595238Y-87802380D01*
X134500000Y-87850000D01*
X134404761Y-87945238D01*
X134357142Y-88135714D01*
X134357142Y-88469047D01*
X134404761Y-88659523D01*
X134500000Y-88754761D01*
X134595238Y-88802380D01*
X134785714Y-88802380D01*
X134880952Y-88754761D01*
X134976190Y-88659523D01*
X135023809Y-88469047D01*
X135023809Y-88135714D01*
X134976190Y-87945238D01*
X134880952Y-87850000D01*
X134785714Y-87802380D01*
X133642857Y-87802380D02*
X133642857Y-88516666D01*
X133690476Y-88659523D01*
X133785714Y-88754761D01*
X133928571Y-88802380D01*
X134023809Y-88802380D01*
X133166666Y-88278571D02*
X132833333Y-88278571D01*
X132690476Y-88802380D02*
X133166666Y-88802380D01*
X133166666Y-87802380D01*
X132690476Y-87802380D01*
X132261904Y-88802380D02*
X132261904Y-87802380D01*
X131690476Y-88802380D02*
X132119047Y-88230952D01*
X131690476Y-87802380D02*
X132261904Y-88373809D01*
X131404761Y-87802380D02*
X130833333Y-87802380D01*
X131119047Y-88802380D02*
X131119047Y-87802380D01*
X129738095Y-88802380D02*
X129738095Y-87802380D01*
X129261904Y-88802380D02*
X129261904Y-87802380D01*
X128690476Y-88802380D01*
X128690476Y-87802380D01*
X128309523Y-87802380D02*
X127642857Y-87802380D01*
X128309523Y-88802380D01*
X127642857Y-88802380D01*
X127071428Y-88326190D02*
X127071428Y-88802380D01*
X127404761Y-87802380D02*
X127071428Y-88326190D01*
X126738095Y-87802380D01*
X126404761Y-88802380D02*
X126404761Y-87802380D01*
X125833333Y-88802380D01*
X125833333Y-87802380D01*
X125357142Y-88802380D02*
X125357142Y-87802380D01*
X124880952Y-88278571D02*
X124547619Y-88278571D01*
X124404761Y-88802380D02*
X124880952Y-88802380D01*
X124880952Y-87802380D01*
X124404761Y-87802380D01*
X123404761Y-88802380D02*
X123738095Y-88326190D01*
X123976190Y-88802380D02*
X123976190Y-87802380D01*
X123595238Y-87802380D01*
X123500000Y-87850000D01*
X123452380Y-87897619D01*
X123404761Y-87992857D01*
X123404761Y-88135714D01*
X123452380Y-88230952D01*
X123500000Y-88278571D01*
X123595238Y-88326190D01*
X123976190Y-88326190D01*
X123023809Y-88754761D02*
X122880952Y-88802380D01*
X122642857Y-88802380D01*
X122547619Y-88754761D01*
X122500000Y-88707142D01*
X122452380Y-88611904D01*
X122452380Y-88516666D01*
X122500000Y-88421428D01*
X122547619Y-88373809D01*
X122642857Y-88326190D01*
X122833333Y-88278571D01*
X122928571Y-88230952D01*
X122976190Y-88183333D01*
X123023809Y-88088095D01*
X123023809Y-87992857D01*
X122976190Y-87897619D01*
X122928571Y-87850000D01*
X122833333Y-87802380D01*
X122595238Y-87802380D01*
X122452380Y-87850000D01*
X122023809Y-88802380D02*
X122023809Y-87802380D01*
X121452380Y-88802380D02*
X121880952Y-88230952D01*
X121452380Y-87802380D02*
X122023809Y-88373809D01*
X121023809Y-88802380D02*
X121023809Y-87802380D01*
X140452380Y-90452380D02*
X140452380Y-89452380D01*
X139880952Y-90452380D02*
X140309523Y-89880952D01*
X139880952Y-89452380D02*
X140452380Y-90023809D01*
X139261904Y-89452380D02*
X139071428Y-89452380D01*
X138976190Y-89500000D01*
X138880952Y-89595238D01*
X138833333Y-89785714D01*
X138833333Y-90119047D01*
X138880952Y-90309523D01*
X138976190Y-90404761D01*
X139071428Y-90452380D01*
X139261904Y-90452380D01*
X139357142Y-90404761D01*
X139452380Y-90309523D01*
X139500000Y-90119047D01*
X139500000Y-89785714D01*
X139452380Y-89595238D01*
X139357142Y-89500000D01*
X139261904Y-89452380D01*
X138404761Y-90452380D02*
X138404761Y-89452380D01*
X137833333Y-90452380D01*
X137833333Y-89452380D01*
X137452380Y-89452380D02*
X137214285Y-90452380D01*
X137023809Y-89738095D01*
X136833333Y-90452380D01*
X136595238Y-89452380D01*
X136214285Y-89928571D02*
X135880952Y-89928571D01*
X135738095Y-90452380D02*
X136214285Y-90452380D01*
X136214285Y-89452380D01*
X135738095Y-89452380D01*
X134738095Y-90452380D02*
X135071428Y-89976190D01*
X135309523Y-90452380D02*
X135309523Y-89452380D01*
X134928571Y-89452380D01*
X134833333Y-89500000D01*
X134785714Y-89547619D01*
X134738095Y-89642857D01*
X134738095Y-89785714D01*
X134785714Y-89880952D01*
X134833333Y-89928571D01*
X134928571Y-89976190D01*
X135309523Y-89976190D01*
X134452380Y-89452380D02*
X133880952Y-89452380D01*
X134166666Y-90452380D02*
X134166666Y-89452380D01*
X133547619Y-89928571D02*
X133214285Y-89928571D01*
X133071428Y-90452380D02*
X133547619Y-90452380D01*
X133547619Y-89452380D01*
X133071428Y-89452380D01*
X132071428Y-90452380D02*
X132404761Y-89976190D01*
X132642857Y-90452380D02*
X132642857Y-89452380D01*
X132261904Y-89452380D01*
X132166666Y-89500000D01*
X132119047Y-89547619D01*
X132071428Y-89642857D01*
X132071428Y-89785714D01*
X132119047Y-89880952D01*
X132166666Y-89928571D01*
X132261904Y-89976190D01*
X132642857Y-89976190D01*
X130309523Y-90452380D02*
X130642857Y-89976190D01*
X130880952Y-90452380D02*
X130880952Y-89452380D01*
X130500000Y-89452380D01*
X130404761Y-89500000D01*
X130357142Y-89547619D01*
X130309523Y-89642857D01*
X130309523Y-89785714D01*
X130357142Y-89880952D01*
X130404761Y-89928571D01*
X130500000Y-89976190D01*
X130880952Y-89976190D01*
X129928571Y-90404761D02*
X129785714Y-90452380D01*
X129547619Y-90452380D01*
X129452380Y-90404761D01*
X129404761Y-90357142D01*
X129357142Y-90261904D01*
X129357142Y-90166666D01*
X129404761Y-90071428D01*
X129452380Y-90023809D01*
X129547619Y-89976190D01*
X129738095Y-89928571D01*
X129833333Y-89880952D01*
X129880952Y-89833333D01*
X129928571Y-89738095D01*
X129928571Y-89642857D01*
X129880952Y-89547619D01*
X129833333Y-89500000D01*
X129738095Y-89452380D01*
X129500000Y-89452380D01*
X129357142Y-89500000D01*
X128500000Y-89785714D02*
X128500000Y-90452380D01*
X128738095Y-89404761D02*
X128976190Y-90119047D01*
X128357142Y-90119047D01*
X127833333Y-89880952D02*
X127928571Y-89833333D01*
X127976190Y-89785714D01*
X128023809Y-89690476D01*
X128023809Y-89642857D01*
X127976190Y-89547619D01*
X127928571Y-89500000D01*
X127833333Y-89452380D01*
X127642857Y-89452380D01*
X127547619Y-89500000D01*
X127500000Y-89547619D01*
X127452380Y-89642857D01*
X127452380Y-89690476D01*
X127500000Y-89785714D01*
X127547619Y-89833333D01*
X127642857Y-89880952D01*
X127833333Y-89880952D01*
X127928571Y-89928571D01*
X127976190Y-89976190D01*
X128023809Y-90071428D01*
X128023809Y-90261904D01*
X127976190Y-90357142D01*
X127928571Y-90404761D01*
X127833333Y-90452380D01*
X127642857Y-90452380D01*
X127547619Y-90404761D01*
X127500000Y-90357142D01*
X127452380Y-90261904D01*
X127452380Y-90071428D01*
X127500000Y-89976190D01*
X127547619Y-89928571D01*
X127642857Y-89880952D01*
X126547619Y-89452380D02*
X127023809Y-89452380D01*
X127071428Y-89928571D01*
X127023809Y-89880952D01*
X126928571Y-89833333D01*
X126690476Y-89833333D01*
X126595238Y-89880952D01*
X126547619Y-89928571D01*
X126500000Y-90023809D01*
X126500000Y-90261904D01*
X126547619Y-90357142D01*
X126595238Y-90404761D01*
X126690476Y-90452380D01*
X126928571Y-90452380D01*
X127023809Y-90404761D01*
X127071428Y-90357142D01*
X125309523Y-90071428D02*
X124547619Y-90071428D01*
X124071428Y-89785714D02*
X123309523Y-90071428D01*
X124071428Y-90357142D01*
X122071428Y-90452380D02*
X122071428Y-89452380D01*
X121642857Y-89547619D02*
X121595238Y-89500000D01*
X121500000Y-89452380D01*
X121261904Y-89452380D01*
X121166666Y-89500000D01*
X121119047Y-89547619D01*
X121071428Y-89642857D01*
X121071428Y-89738095D01*
X121119047Y-89880952D01*
X121690476Y-90452380D01*
X121071428Y-90452380D01*
X120071428Y-90357142D02*
X120119047Y-90404761D01*
X120261904Y-90452380D01*
X120357142Y-90452380D01*
X120500000Y-90404761D01*
X120595238Y-90309523D01*
X120642857Y-90214285D01*
X120690476Y-90023809D01*
X120690476Y-89880952D01*
X120642857Y-89690476D01*
X120595238Y-89595238D01*
X120500000Y-89500000D01*
X120357142Y-89452380D01*
X120261904Y-89452380D01*
X120119047Y-89500000D01*
X120071428Y-89547619D01*
X119023809Y-89452380D02*
X118690476Y-90452380D01*
X118357142Y-89452380D01*
X117500000Y-90452380D02*
X118071428Y-90452380D01*
X117785714Y-90452380D02*
X117785714Y-89452380D01*
X117880952Y-89595238D01*
X117976190Y-89690476D01*
X118071428Y-89738095D01*
X136642857Y-92102380D02*
X136642857Y-91102380D01*
X136309523Y-91816666D01*
X135976190Y-91102380D01*
X135976190Y-92102380D01*
X135547619Y-91816666D02*
X135071428Y-91816666D01*
X135642857Y-92102380D02*
X135309523Y-91102380D01*
X134976190Y-92102380D01*
X134071428Y-92102380D02*
X134404761Y-91626190D01*
X134642857Y-92102380D02*
X134642857Y-91102380D01*
X134261904Y-91102380D01*
X134166666Y-91150000D01*
X134119047Y-91197619D01*
X134071428Y-91292857D01*
X134071428Y-91435714D01*
X134119047Y-91530952D01*
X134166666Y-91578571D01*
X134261904Y-91626190D01*
X134642857Y-91626190D01*
X133071428Y-92007142D02*
X133119047Y-92054761D01*
X133261904Y-92102380D01*
X133357142Y-92102380D01*
X133500000Y-92054761D01*
X133595238Y-91959523D01*
X133642857Y-91864285D01*
X133690476Y-91673809D01*
X133690476Y-91530952D01*
X133642857Y-91340476D01*
X133595238Y-91245238D01*
X133500000Y-91150000D01*
X133357142Y-91102380D01*
X133261904Y-91102380D01*
X133119047Y-91150000D01*
X133071428Y-91197619D01*
X132642857Y-92102380D02*
X132642857Y-91102380D01*
X132166666Y-92102380D02*
X132166666Y-91102380D01*
X131595238Y-92102380D01*
X131595238Y-91102380D01*
X130452380Y-91102380D02*
X130214285Y-92102380D01*
X130023809Y-91388095D01*
X129833333Y-92102380D01*
X129595238Y-91102380D01*
X129023809Y-91102380D02*
X128833333Y-91102380D01*
X128738095Y-91150000D01*
X128642857Y-91245238D01*
X128595238Y-91435714D01*
X128595238Y-91769047D01*
X128642857Y-91959523D01*
X128738095Y-92054761D01*
X128833333Y-92102380D01*
X129023809Y-92102380D01*
X129119047Y-92054761D01*
X129214285Y-91959523D01*
X129261904Y-91769047D01*
X129261904Y-91435714D01*
X129214285Y-91245238D01*
X129119047Y-91150000D01*
X129023809Y-91102380D01*
X127880952Y-91102380D02*
X127880952Y-91816666D01*
X127928571Y-91959523D01*
X128023809Y-92054761D01*
X128166666Y-92102380D01*
X128261904Y-92102380D01*
X127404761Y-91578571D02*
X127071428Y-91578571D01*
X126928571Y-92102380D02*
X127404761Y-92102380D01*
X127404761Y-91102380D01*
X126928571Y-91102380D01*
X126595238Y-91102380D02*
X126357142Y-92102380D01*
X126166666Y-91388095D01*
X125976190Y-92102380D01*
X125738095Y-91102380D01*
X125166666Y-91102380D02*
X124976190Y-91102380D01*
X124880952Y-91150000D01*
X124785714Y-91245238D01*
X124738095Y-91435714D01*
X124738095Y-91769047D01*
X124785714Y-91959523D01*
X124880952Y-92054761D01*
X124976190Y-92102380D01*
X125166666Y-92102380D01*
X125261904Y-92054761D01*
X125357142Y-91959523D01*
X125404761Y-91769047D01*
X125404761Y-91435714D01*
X125357142Y-91245238D01*
X125261904Y-91150000D01*
X125166666Y-91102380D01*
X124309523Y-92102380D02*
X124309523Y-91102380D01*
X124071428Y-91102380D01*
X123928571Y-91150000D01*
X123833333Y-91245238D01*
X123785714Y-91340476D01*
X123738095Y-91530952D01*
X123738095Y-91673809D01*
X123785714Y-91864285D01*
X123833333Y-91959523D01*
X123928571Y-92054761D01*
X124071428Y-92102380D01*
X124309523Y-92102380D01*
X123404761Y-91102380D02*
X122738095Y-91102380D01*
X123404761Y-92102380D01*
X122738095Y-92102380D01*
X122357142Y-92102380D02*
X122357142Y-91102380D01*
X121309523Y-92007142D02*
X121357142Y-92054761D01*
X121500000Y-92102380D01*
X121595238Y-92102380D01*
X121738095Y-92054761D01*
X121833333Y-91959523D01*
X121880952Y-91864285D01*
X121928571Y-91673809D01*
X121928571Y-91530952D01*
X121880952Y-91340476D01*
X121833333Y-91245238D01*
X121738095Y-91150000D01*
X121595238Y-91102380D01*
X121500000Y-91102380D01*
X121357142Y-91150000D01*
X121309523Y-91197619D01*
%LPC*%
D11*
X122340000Y-111000000D03*
D12*
X119800000Y-111000000D03*
D13*
X95000000Y-77000000D03*
X138000000Y-110000000D03*
D14*
X148000000Y-92160000D03*
D15*
X148000000Y-107400000D03*
D14*
X148000000Y-97240000D03*
X148000000Y-102320000D03*
D11*
X114820000Y-111000000D03*
X112280000Y-111000000D03*
X109740000Y-111000000D03*
X107200000Y-111000000D03*
D12*
X104660000Y-111000000D03*
D11*
X101240000Y-81200000D03*
X103780000Y-81200000D03*
X106320000Y-81200000D03*
X108860000Y-81200000D03*
D12*
X111400000Y-81200000D03*
D16*
X132100000Y-81200000D03*
X129550000Y-81200000D03*
D17*
X127000000Y-81200000D03*
D18*
X132170000Y-96590000D03*
X132170000Y-99130000D03*
X132170000Y-101670000D03*
X132170000Y-104210000D03*
X124230000Y-104210000D03*
X124230000Y-101670000D03*
X124230000Y-99130000D03*
D19*
X124230000Y-96590000D03*
M02*
