%TF.GenerationSoftware,KiCad,Pcbnew,(5.1.12)-1*%
%TF.CreationDate,2022-08-06T16:25:20+02:00*%
%TF.ProjectId,Konwerter,4b6f6e77-6572-4746-9572-2e6b69636164,rev?*%
%TF.SameCoordinates,Original*%
%TF.FileFunction,Copper,L2,Bot*%
%TF.FilePolarity,Positive*%
%FSLAX46Y46*%
G04 Gerber Fmt 4.6, Leading zero omitted, Abs format (unit mm)*
G04 Created by KiCad (PCBNEW (5.1.12)-1) date 2022-08-06 16:25:20*
%MOMM*%
%LPD*%
G01*
G04 APERTURE LIST*
%TA.AperFunction,ComponentPad*%
%ADD10O,1.700000X1.700000*%
%TD*%
%TA.AperFunction,ComponentPad*%
%ADD11R,1.700000X1.700000*%
%TD*%
%TA.AperFunction,ComponentPad*%
%ADD12C,4.000000*%
%TD*%
%TA.AperFunction,ComponentPad*%
%ADD13C,3.000000*%
%TD*%
%TA.AperFunction,ComponentPad*%
%ADD14R,3.000000X3.000000*%
%TD*%
%TA.AperFunction,ComponentPad*%
%ADD15C,1.980000*%
%TD*%
%TA.AperFunction,ComponentPad*%
%ADD16R,1.980000X1.980000*%
%TD*%
%TA.AperFunction,ComponentPad*%
%ADD17C,1.160000*%
%TD*%
%TA.AperFunction,ComponentPad*%
%ADD18R,1.160000X1.160000*%
%TD*%
%TA.AperFunction,ViaPad*%
%ADD19C,0.800000*%
%TD*%
%TA.AperFunction,Conductor*%
%ADD20C,0.500000*%
%TD*%
%TA.AperFunction,Conductor*%
%ADD21C,0.250000*%
%TD*%
%TA.AperFunction,Conductor*%
%ADD22C,0.200000*%
%TD*%
G04 APERTURE END LIST*
D10*
X122340000Y-111000000D03*
D11*
X119800000Y-111000000D03*
D12*
X95000000Y-77000000D03*
X138000000Y-110000000D03*
D13*
X148000000Y-92160000D03*
D14*
X148000000Y-107400000D03*
D13*
X148000000Y-97240000D03*
X148000000Y-102320000D03*
D10*
X114820000Y-111000000D03*
X112280000Y-111000000D03*
X109740000Y-111000000D03*
X107200000Y-111000000D03*
D11*
X104660000Y-111000000D03*
D10*
X101240000Y-81200000D03*
X103780000Y-81200000D03*
X106320000Y-81200000D03*
X108860000Y-81200000D03*
D11*
X111400000Y-81200000D03*
D15*
X132100000Y-81200000D03*
X129550000Y-81200000D03*
D16*
X127000000Y-81200000D03*
D17*
X132170000Y-96590000D03*
X132170000Y-99130000D03*
X132170000Y-101670000D03*
X132170000Y-104210000D03*
X124230000Y-104210000D03*
X124230000Y-101670000D03*
X124230000Y-99130000D03*
D18*
X124230000Y-96590000D03*
D19*
X97275000Y-101925000D03*
X104565000Y-100435000D03*
X151600000Y-84000000D03*
X103400000Y-92800000D03*
X137000000Y-76000000D03*
X120000000Y-84000000D03*
X113800000Y-98200000D03*
X110035000Y-99165000D03*
X108400000Y-101200000D03*
D20*
X131600000Y-81200000D02*
X132100000Y-81200000D01*
X130159999Y-79759999D02*
X131600000Y-81200000D01*
X107760001Y-79759999D02*
X130159999Y-79759999D01*
X106320000Y-81200000D02*
X107760001Y-79759999D01*
D21*
X111400000Y-95800000D02*
X113800000Y-98200000D01*
X111400000Y-81200000D02*
X111400000Y-95800000D01*
X108860000Y-97990000D02*
X110035000Y-99165000D01*
X108860000Y-81200000D02*
X108860000Y-97990000D01*
X120714989Y-112625011D02*
X122340000Y-111000000D01*
X108825011Y-112625011D02*
X120714989Y-112625011D01*
X107200000Y-111000000D02*
X108825011Y-112625011D01*
X118624999Y-112175001D02*
X119800000Y-111000000D01*
X110915001Y-112175001D02*
X118624999Y-112175001D01*
X109740000Y-111000000D02*
X110915001Y-112175001D01*
X104125001Y-96925001D02*
X108400000Y-101200000D01*
X104125001Y-84085001D02*
X104125001Y-96925001D01*
X101240000Y-81200000D02*
X104125001Y-84085001D01*
D22*
X152900000Y-113900000D02*
X91100000Y-113900000D01*
X91100000Y-110150000D01*
X103508549Y-110150000D01*
X103508549Y-111850000D01*
X103514341Y-111908810D01*
X103531496Y-111965360D01*
X103559353Y-112017477D01*
X103596842Y-112063158D01*
X103642523Y-112100647D01*
X103694640Y-112128504D01*
X103751190Y-112145659D01*
X103810000Y-112151451D01*
X105510000Y-112151451D01*
X105568810Y-112145659D01*
X105625360Y-112128504D01*
X105677477Y-112100647D01*
X105723158Y-112063158D01*
X105760647Y-112017477D01*
X105788504Y-111965360D01*
X105805659Y-111908810D01*
X105811451Y-111850000D01*
X105811451Y-110886735D01*
X106050000Y-110886735D01*
X106050000Y-111113265D01*
X106094194Y-111335443D01*
X106180884Y-111544729D01*
X106306737Y-111733082D01*
X106466918Y-111893263D01*
X106655271Y-112019116D01*
X106864557Y-112105806D01*
X107086735Y-112150000D01*
X107313265Y-112150000D01*
X107535443Y-112105806D01*
X107655172Y-112056212D01*
X108509727Y-112910767D01*
X108523037Y-112926985D01*
X108587751Y-112980095D01*
X108661582Y-113019558D01*
X108661584Y-113019559D01*
X108741697Y-113043861D01*
X108825011Y-113052067D01*
X108845885Y-113050011D01*
X120694122Y-113050011D01*
X120714989Y-113052066D01*
X120735856Y-113050011D01*
X120735863Y-113050011D01*
X120798303Y-113043861D01*
X120878416Y-113019559D01*
X120952249Y-112980095D01*
X121016963Y-112926985D01*
X121030273Y-112910767D01*
X121884828Y-112056212D01*
X122004557Y-112105806D01*
X122226735Y-112150000D01*
X122453265Y-112150000D01*
X122675443Y-112105806D01*
X122884729Y-112019116D01*
X123073082Y-111893263D01*
X123233263Y-111733082D01*
X123359116Y-111544729D01*
X123445806Y-111335443D01*
X123490000Y-111113265D01*
X123490000Y-110886735D01*
X123445806Y-110664557D01*
X123359116Y-110455271D01*
X123233263Y-110266918D01*
X123073082Y-110106737D01*
X122884729Y-109980884D01*
X122675443Y-109894194D01*
X122453265Y-109850000D01*
X122226735Y-109850000D01*
X122004557Y-109894194D01*
X121795271Y-109980884D01*
X121606918Y-110106737D01*
X121446737Y-110266918D01*
X121320884Y-110455271D01*
X121234194Y-110664557D01*
X121190000Y-110886735D01*
X121190000Y-111113265D01*
X121234194Y-111335443D01*
X121283788Y-111455172D01*
X120951451Y-111787509D01*
X120951451Y-110150000D01*
X120945659Y-110091190D01*
X120928504Y-110034640D01*
X120900647Y-109982523D01*
X120863158Y-109936842D01*
X120817477Y-109899353D01*
X120765360Y-109871496D01*
X120708810Y-109854341D01*
X120650000Y-109848549D01*
X118950000Y-109848549D01*
X118891190Y-109854341D01*
X118834640Y-109871496D01*
X118782523Y-109899353D01*
X118736842Y-109936842D01*
X118699353Y-109982523D01*
X118671496Y-110034640D01*
X118654341Y-110091190D01*
X118648549Y-110150000D01*
X118648549Y-111550411D01*
X118448959Y-111750001D01*
X115696344Y-111750001D01*
X115713263Y-111733082D01*
X115839116Y-111544729D01*
X115925806Y-111335443D01*
X115970000Y-111113265D01*
X115970000Y-110886735D01*
X115925806Y-110664557D01*
X115839116Y-110455271D01*
X115713263Y-110266918D01*
X115553082Y-110106737D01*
X115364729Y-109980884D01*
X115155443Y-109894194D01*
X114933265Y-109850000D01*
X114706735Y-109850000D01*
X114484557Y-109894194D01*
X114275271Y-109980884D01*
X114086918Y-110106737D01*
X113926737Y-110266918D01*
X113800884Y-110455271D01*
X113714194Y-110664557D01*
X113670000Y-110886735D01*
X113670000Y-111113265D01*
X113714194Y-111335443D01*
X113800884Y-111544729D01*
X113926737Y-111733082D01*
X113943656Y-111750001D01*
X111091042Y-111750001D01*
X110796212Y-111455172D01*
X110845806Y-111335443D01*
X110890000Y-111113265D01*
X110890000Y-110886735D01*
X110845806Y-110664557D01*
X110759116Y-110455271D01*
X110633263Y-110266918D01*
X110473082Y-110106737D01*
X110284729Y-109980884D01*
X110075443Y-109894194D01*
X109853265Y-109850000D01*
X109626735Y-109850000D01*
X109404557Y-109894194D01*
X109195271Y-109980884D01*
X109006918Y-110106737D01*
X108846737Y-110266918D01*
X108720884Y-110455271D01*
X108634194Y-110664557D01*
X108590000Y-110886735D01*
X108590000Y-111113265D01*
X108634194Y-111335443D01*
X108720884Y-111544729D01*
X108846737Y-111733082D01*
X109006918Y-111893263D01*
X109195271Y-112019116D01*
X109404557Y-112105806D01*
X109626735Y-112150000D01*
X109853265Y-112150000D01*
X110075443Y-112105806D01*
X110195172Y-112056212D01*
X110338970Y-112200011D01*
X109001051Y-112200011D01*
X108256212Y-111455172D01*
X108305806Y-111335443D01*
X108350000Y-111113265D01*
X108350000Y-110886735D01*
X108305806Y-110664557D01*
X108219116Y-110455271D01*
X108093263Y-110266918D01*
X107933082Y-110106737D01*
X107744729Y-109980884D01*
X107535443Y-109894194D01*
X107313265Y-109850000D01*
X107086735Y-109850000D01*
X106864557Y-109894194D01*
X106655271Y-109980884D01*
X106466918Y-110106737D01*
X106306737Y-110266918D01*
X106180884Y-110455271D01*
X106094194Y-110664557D01*
X106050000Y-110886735D01*
X105811451Y-110886735D01*
X105811451Y-110150000D01*
X105805659Y-110091190D01*
X105788504Y-110034640D01*
X105760647Y-109982523D01*
X105723158Y-109936842D01*
X105677477Y-109899353D01*
X105625360Y-109871496D01*
X105568810Y-109854341D01*
X105510000Y-109848549D01*
X103810000Y-109848549D01*
X103751190Y-109854341D01*
X103694640Y-109871496D01*
X103642523Y-109899353D01*
X103596842Y-109936842D01*
X103559353Y-109982523D01*
X103531496Y-110034640D01*
X103514341Y-110091190D01*
X103508549Y-110150000D01*
X91100000Y-110150000D01*
X91100000Y-109773470D01*
X135700000Y-109773470D01*
X135700000Y-110226530D01*
X135788387Y-110670885D01*
X135961766Y-111089459D01*
X136213473Y-111466165D01*
X136533835Y-111786527D01*
X136910541Y-112038234D01*
X137329115Y-112211613D01*
X137773470Y-112300000D01*
X138226530Y-112300000D01*
X138670885Y-112211613D01*
X139089459Y-112038234D01*
X139466165Y-111786527D01*
X139786527Y-111466165D01*
X140038234Y-111089459D01*
X140211613Y-110670885D01*
X140300000Y-110226530D01*
X140300000Y-109773470D01*
X140211613Y-109329115D01*
X140038234Y-108910541D01*
X139786527Y-108533835D01*
X139466165Y-108213473D01*
X139089459Y-107961766D01*
X138670885Y-107788387D01*
X138226530Y-107700000D01*
X137773470Y-107700000D01*
X137329115Y-107788387D01*
X136910541Y-107961766D01*
X136533835Y-108213473D01*
X136213473Y-108533835D01*
X135961766Y-108910541D01*
X135788387Y-109329115D01*
X135700000Y-109773470D01*
X91100000Y-109773470D01*
X91100000Y-104123328D01*
X123350000Y-104123328D01*
X123350000Y-104296672D01*
X123383818Y-104466687D01*
X123450154Y-104626836D01*
X123546459Y-104770967D01*
X123669033Y-104893541D01*
X123813164Y-104989846D01*
X123973313Y-105056182D01*
X124143328Y-105090000D01*
X124316672Y-105090000D01*
X124486687Y-105056182D01*
X124646836Y-104989846D01*
X124790967Y-104893541D01*
X124913541Y-104770967D01*
X125009846Y-104626836D01*
X125076182Y-104466687D01*
X125110000Y-104296672D01*
X125110000Y-104123328D01*
X125076182Y-103953313D01*
X125009846Y-103793164D01*
X124913541Y-103649033D01*
X124790967Y-103526459D01*
X124646836Y-103430154D01*
X124486687Y-103363818D01*
X124316672Y-103330000D01*
X124143328Y-103330000D01*
X123973313Y-103363818D01*
X123813164Y-103430154D01*
X123669033Y-103526459D01*
X123546459Y-103649033D01*
X123450154Y-103793164D01*
X123383818Y-103953313D01*
X123350000Y-104123328D01*
X91100000Y-104123328D01*
X91100000Y-81086735D01*
X100090000Y-81086735D01*
X100090000Y-81313265D01*
X100134194Y-81535443D01*
X100220884Y-81744729D01*
X100346737Y-81933082D01*
X100506918Y-82093263D01*
X100695271Y-82219116D01*
X100904557Y-82305806D01*
X101126735Y-82350000D01*
X101353265Y-82350000D01*
X101575443Y-82305806D01*
X101695172Y-82256212D01*
X103700001Y-84261041D01*
X103700002Y-96904124D01*
X103697946Y-96925001D01*
X103706151Y-97008315D01*
X103722654Y-97062716D01*
X103730454Y-97088428D01*
X103769918Y-97162261D01*
X103823028Y-97226975D01*
X103839240Y-97240280D01*
X107704980Y-101106020D01*
X107700000Y-101131056D01*
X107700000Y-101268944D01*
X107726901Y-101404182D01*
X107779668Y-101531574D01*
X107856274Y-101646224D01*
X107953776Y-101743726D01*
X108068426Y-101820332D01*
X108195818Y-101873099D01*
X108331056Y-101900000D01*
X108468944Y-101900000D01*
X108604182Y-101873099D01*
X108731574Y-101820332D01*
X108846224Y-101743726D01*
X108943726Y-101646224D01*
X108985751Y-101583328D01*
X123350000Y-101583328D01*
X123350000Y-101756672D01*
X123383818Y-101926687D01*
X123450154Y-102086836D01*
X123546459Y-102230967D01*
X123669033Y-102353541D01*
X123813164Y-102449846D01*
X123973313Y-102516182D01*
X124143328Y-102550000D01*
X124316672Y-102550000D01*
X124486687Y-102516182D01*
X124646836Y-102449846D01*
X124790967Y-102353541D01*
X124913541Y-102230967D01*
X125009846Y-102086836D01*
X125076182Y-101926687D01*
X125110000Y-101756672D01*
X125110000Y-101583328D01*
X131290000Y-101583328D01*
X131290000Y-101756672D01*
X131323818Y-101926687D01*
X131390154Y-102086836D01*
X131486459Y-102230967D01*
X131609033Y-102353541D01*
X131753164Y-102449846D01*
X131913313Y-102516182D01*
X132083328Y-102550000D01*
X132256672Y-102550000D01*
X132426687Y-102516182D01*
X132586836Y-102449846D01*
X132730967Y-102353541D01*
X132853541Y-102230967D01*
X132912508Y-102142716D01*
X146200000Y-102142716D01*
X146200000Y-102497284D01*
X146269173Y-102845041D01*
X146404861Y-103172620D01*
X146601849Y-103467433D01*
X146852567Y-103718151D01*
X147147380Y-103915139D01*
X147474959Y-104050827D01*
X147822716Y-104120000D01*
X148177284Y-104120000D01*
X148525041Y-104050827D01*
X148852620Y-103915139D01*
X149147433Y-103718151D01*
X149398151Y-103467433D01*
X149595139Y-103172620D01*
X149730827Y-102845041D01*
X149800000Y-102497284D01*
X149800000Y-102142716D01*
X149730827Y-101794959D01*
X149595139Y-101467380D01*
X149398151Y-101172567D01*
X149147433Y-100921849D01*
X148852620Y-100724861D01*
X148525041Y-100589173D01*
X148177284Y-100520000D01*
X147822716Y-100520000D01*
X147474959Y-100589173D01*
X147147380Y-100724861D01*
X146852567Y-100921849D01*
X146601849Y-101172567D01*
X146404861Y-101467380D01*
X146269173Y-101794959D01*
X146200000Y-102142716D01*
X132912508Y-102142716D01*
X132949846Y-102086836D01*
X133016182Y-101926687D01*
X133050000Y-101756672D01*
X133050000Y-101583328D01*
X133016182Y-101413313D01*
X132949846Y-101253164D01*
X132853541Y-101109033D01*
X132730967Y-100986459D01*
X132586836Y-100890154D01*
X132426687Y-100823818D01*
X132256672Y-100790000D01*
X132083328Y-100790000D01*
X131913313Y-100823818D01*
X131753164Y-100890154D01*
X131609033Y-100986459D01*
X131486459Y-101109033D01*
X131390154Y-101253164D01*
X131323818Y-101413313D01*
X131290000Y-101583328D01*
X125110000Y-101583328D01*
X125076182Y-101413313D01*
X125009846Y-101253164D01*
X124913541Y-101109033D01*
X124790967Y-100986459D01*
X124646836Y-100890154D01*
X124486687Y-100823818D01*
X124316672Y-100790000D01*
X124143328Y-100790000D01*
X123973313Y-100823818D01*
X123813164Y-100890154D01*
X123669033Y-100986459D01*
X123546459Y-101109033D01*
X123450154Y-101253164D01*
X123383818Y-101413313D01*
X123350000Y-101583328D01*
X108985751Y-101583328D01*
X109020332Y-101531574D01*
X109073099Y-101404182D01*
X109100000Y-101268944D01*
X109100000Y-101131056D01*
X109073099Y-100995818D01*
X109020332Y-100868426D01*
X108943726Y-100753776D01*
X108846224Y-100656274D01*
X108731574Y-100579668D01*
X108604182Y-100526901D01*
X108468944Y-100500000D01*
X108331056Y-100500000D01*
X108306020Y-100504980D01*
X104550001Y-96748961D01*
X104550001Y-84105875D01*
X104552057Y-84085001D01*
X104543851Y-84001687D01*
X104519549Y-83921574D01*
X104480085Y-83847741D01*
X104426975Y-83783027D01*
X104410759Y-83769719D01*
X102296212Y-81655172D01*
X102345806Y-81535443D01*
X102390000Y-81313265D01*
X102390000Y-81086735D01*
X105170000Y-81086735D01*
X105170000Y-81313265D01*
X105214194Y-81535443D01*
X105300884Y-81744729D01*
X105426737Y-81933082D01*
X105586918Y-82093263D01*
X105775271Y-82219116D01*
X105984557Y-82305806D01*
X106206735Y-82350000D01*
X106433265Y-82350000D01*
X106655443Y-82305806D01*
X106864729Y-82219116D01*
X107053082Y-82093263D01*
X107213263Y-81933082D01*
X107339116Y-81744729D01*
X107425806Y-81535443D01*
X107470000Y-81313265D01*
X107470000Y-81086735D01*
X107427043Y-80870775D01*
X107987819Y-80309999D01*
X108123656Y-80309999D01*
X107966737Y-80466918D01*
X107840884Y-80655271D01*
X107754194Y-80864557D01*
X107710000Y-81086735D01*
X107710000Y-81313265D01*
X107754194Y-81535443D01*
X107840884Y-81744729D01*
X107966737Y-81933082D01*
X108126918Y-82093263D01*
X108315271Y-82219116D01*
X108435000Y-82268710D01*
X108435001Y-97969123D01*
X108432945Y-97990000D01*
X108441150Y-98073314D01*
X108458667Y-98131056D01*
X108465453Y-98153427D01*
X108504917Y-98227260D01*
X108532454Y-98260813D01*
X108539127Y-98268944D01*
X108558027Y-98291974D01*
X108574239Y-98305279D01*
X109339980Y-99071021D01*
X109335000Y-99096056D01*
X109335000Y-99233944D01*
X109361901Y-99369182D01*
X109414668Y-99496574D01*
X109491274Y-99611224D01*
X109588776Y-99708726D01*
X109703426Y-99785332D01*
X109830818Y-99838099D01*
X109966056Y-99865000D01*
X110103944Y-99865000D01*
X110239182Y-99838099D01*
X110366574Y-99785332D01*
X110481224Y-99708726D01*
X110578726Y-99611224D01*
X110655332Y-99496574D01*
X110708099Y-99369182D01*
X110735000Y-99233944D01*
X110735000Y-99096056D01*
X110724512Y-99043328D01*
X123350000Y-99043328D01*
X123350000Y-99216672D01*
X123383818Y-99386687D01*
X123450154Y-99546836D01*
X123546459Y-99690967D01*
X123669033Y-99813541D01*
X123813164Y-99909846D01*
X123973313Y-99976182D01*
X124143328Y-100010000D01*
X124316672Y-100010000D01*
X124486687Y-99976182D01*
X124646836Y-99909846D01*
X124790967Y-99813541D01*
X124913541Y-99690967D01*
X125009846Y-99546836D01*
X125076182Y-99386687D01*
X125110000Y-99216672D01*
X125110000Y-99043328D01*
X131290000Y-99043328D01*
X131290000Y-99216672D01*
X131323818Y-99386687D01*
X131390154Y-99546836D01*
X131486459Y-99690967D01*
X131609033Y-99813541D01*
X131753164Y-99909846D01*
X131913313Y-99976182D01*
X132083328Y-100010000D01*
X132256672Y-100010000D01*
X132426687Y-99976182D01*
X132586836Y-99909846D01*
X132730967Y-99813541D01*
X132853541Y-99690967D01*
X132949846Y-99546836D01*
X133016182Y-99386687D01*
X133050000Y-99216672D01*
X133050000Y-99043328D01*
X133016182Y-98873313D01*
X132949846Y-98713164D01*
X132853541Y-98569033D01*
X132730967Y-98446459D01*
X132586836Y-98350154D01*
X132426687Y-98283818D01*
X132256672Y-98250000D01*
X132083328Y-98250000D01*
X131913313Y-98283818D01*
X131753164Y-98350154D01*
X131609033Y-98446459D01*
X131486459Y-98569033D01*
X131390154Y-98713164D01*
X131323818Y-98873313D01*
X131290000Y-99043328D01*
X125110000Y-99043328D01*
X125076182Y-98873313D01*
X125009846Y-98713164D01*
X124913541Y-98569033D01*
X124790967Y-98446459D01*
X124646836Y-98350154D01*
X124486687Y-98283818D01*
X124316672Y-98250000D01*
X124143328Y-98250000D01*
X123973313Y-98283818D01*
X123813164Y-98350154D01*
X123669033Y-98446459D01*
X123546459Y-98569033D01*
X123450154Y-98713164D01*
X123383818Y-98873313D01*
X123350000Y-99043328D01*
X110724512Y-99043328D01*
X110708099Y-98960818D01*
X110655332Y-98833426D01*
X110578726Y-98718776D01*
X110481224Y-98621274D01*
X110366574Y-98544668D01*
X110239182Y-98491901D01*
X110103944Y-98465000D01*
X109966056Y-98465000D01*
X109941021Y-98469980D01*
X109285000Y-97813960D01*
X109285000Y-82268710D01*
X109404729Y-82219116D01*
X109593082Y-82093263D01*
X109753263Y-81933082D01*
X109879116Y-81744729D01*
X109965806Y-81535443D01*
X110010000Y-81313265D01*
X110010000Y-81086735D01*
X109965806Y-80864557D01*
X109879116Y-80655271D01*
X109753263Y-80466918D01*
X109596344Y-80309999D01*
X110252489Y-80309999D01*
X110248549Y-80350000D01*
X110248549Y-82050000D01*
X110254341Y-82108810D01*
X110271496Y-82165360D01*
X110299353Y-82217477D01*
X110336842Y-82263158D01*
X110382523Y-82300647D01*
X110434640Y-82328504D01*
X110491190Y-82345659D01*
X110550000Y-82351451D01*
X110975000Y-82351451D01*
X110975001Y-95779123D01*
X110972945Y-95800000D01*
X110981150Y-95883314D01*
X111001741Y-95951190D01*
X111005453Y-95963427D01*
X111044917Y-96037260D01*
X111098027Y-96101974D01*
X111114239Y-96115279D01*
X113104980Y-98106020D01*
X113100000Y-98131056D01*
X113100000Y-98268944D01*
X113126901Y-98404182D01*
X113179668Y-98531574D01*
X113256274Y-98646224D01*
X113353776Y-98743726D01*
X113468426Y-98820332D01*
X113595818Y-98873099D01*
X113731056Y-98900000D01*
X113868944Y-98900000D01*
X114004182Y-98873099D01*
X114131574Y-98820332D01*
X114246224Y-98743726D01*
X114343726Y-98646224D01*
X114420332Y-98531574D01*
X114473099Y-98404182D01*
X114500000Y-98268944D01*
X114500000Y-98131056D01*
X114473099Y-97995818D01*
X114420332Y-97868426D01*
X114343726Y-97753776D01*
X114246224Y-97656274D01*
X114131574Y-97579668D01*
X114004182Y-97526901D01*
X113868944Y-97500000D01*
X113731056Y-97500000D01*
X113706020Y-97504980D01*
X112211040Y-96010000D01*
X123348549Y-96010000D01*
X123348549Y-97170000D01*
X123354341Y-97228810D01*
X123371496Y-97285360D01*
X123399353Y-97337477D01*
X123436842Y-97383158D01*
X123482523Y-97420647D01*
X123534640Y-97448504D01*
X123591190Y-97465659D01*
X123650000Y-97471451D01*
X124810000Y-97471451D01*
X124868810Y-97465659D01*
X124925360Y-97448504D01*
X124977477Y-97420647D01*
X125023158Y-97383158D01*
X125060647Y-97337477D01*
X125088504Y-97285360D01*
X125105659Y-97228810D01*
X125111451Y-97170000D01*
X125111451Y-96503328D01*
X131290000Y-96503328D01*
X131290000Y-96676672D01*
X131323818Y-96846687D01*
X131390154Y-97006836D01*
X131486459Y-97150967D01*
X131609033Y-97273541D01*
X131753164Y-97369846D01*
X131913313Y-97436182D01*
X132083328Y-97470000D01*
X132256672Y-97470000D01*
X132426687Y-97436182D01*
X132586836Y-97369846D01*
X132730967Y-97273541D01*
X132853541Y-97150967D01*
X132912508Y-97062716D01*
X146200000Y-97062716D01*
X146200000Y-97417284D01*
X146269173Y-97765041D01*
X146404861Y-98092620D01*
X146601849Y-98387433D01*
X146852567Y-98638151D01*
X147147380Y-98835139D01*
X147474959Y-98970827D01*
X147822716Y-99040000D01*
X148177284Y-99040000D01*
X148525041Y-98970827D01*
X148852620Y-98835139D01*
X149147433Y-98638151D01*
X149398151Y-98387433D01*
X149595139Y-98092620D01*
X149730827Y-97765041D01*
X149800000Y-97417284D01*
X149800000Y-97062716D01*
X149730827Y-96714959D01*
X149595139Y-96387380D01*
X149398151Y-96092567D01*
X149147433Y-95841849D01*
X148852620Y-95644861D01*
X148525041Y-95509173D01*
X148177284Y-95440000D01*
X147822716Y-95440000D01*
X147474959Y-95509173D01*
X147147380Y-95644861D01*
X146852567Y-95841849D01*
X146601849Y-96092567D01*
X146404861Y-96387380D01*
X146269173Y-96714959D01*
X146200000Y-97062716D01*
X132912508Y-97062716D01*
X132949846Y-97006836D01*
X133016182Y-96846687D01*
X133050000Y-96676672D01*
X133050000Y-96503328D01*
X133016182Y-96333313D01*
X132949846Y-96173164D01*
X132853541Y-96029033D01*
X132730967Y-95906459D01*
X132586836Y-95810154D01*
X132426687Y-95743818D01*
X132256672Y-95710000D01*
X132083328Y-95710000D01*
X131913313Y-95743818D01*
X131753164Y-95810154D01*
X131609033Y-95906459D01*
X131486459Y-96029033D01*
X131390154Y-96173164D01*
X131323818Y-96333313D01*
X131290000Y-96503328D01*
X125111451Y-96503328D01*
X125111451Y-96010000D01*
X125105659Y-95951190D01*
X125088504Y-95894640D01*
X125060647Y-95842523D01*
X125023158Y-95796842D01*
X124977477Y-95759353D01*
X124925360Y-95731496D01*
X124868810Y-95714341D01*
X124810000Y-95708549D01*
X123650000Y-95708549D01*
X123591190Y-95714341D01*
X123534640Y-95731496D01*
X123482523Y-95759353D01*
X123436842Y-95796842D01*
X123399353Y-95842523D01*
X123371496Y-95894640D01*
X123354341Y-95951190D01*
X123348549Y-96010000D01*
X112211040Y-96010000D01*
X111825000Y-95623960D01*
X111825000Y-91982716D01*
X146200000Y-91982716D01*
X146200000Y-92337284D01*
X146269173Y-92685041D01*
X146404861Y-93012620D01*
X146601849Y-93307433D01*
X146852567Y-93558151D01*
X147147380Y-93755139D01*
X147474959Y-93890827D01*
X147822716Y-93960000D01*
X148177284Y-93960000D01*
X148525041Y-93890827D01*
X148852620Y-93755139D01*
X149147433Y-93558151D01*
X149398151Y-93307433D01*
X149595139Y-93012620D01*
X149730827Y-92685041D01*
X149800000Y-92337284D01*
X149800000Y-91982716D01*
X149730827Y-91634959D01*
X149595139Y-91307380D01*
X149398151Y-91012567D01*
X149147433Y-90761849D01*
X148852620Y-90564861D01*
X148525041Y-90429173D01*
X148177284Y-90360000D01*
X147822716Y-90360000D01*
X147474959Y-90429173D01*
X147147380Y-90564861D01*
X146852567Y-90761849D01*
X146601849Y-91012567D01*
X146404861Y-91307380D01*
X146269173Y-91634959D01*
X146200000Y-91982716D01*
X111825000Y-91982716D01*
X111825000Y-82351451D01*
X112250000Y-82351451D01*
X112308810Y-82345659D01*
X112365360Y-82328504D01*
X112417477Y-82300647D01*
X112463158Y-82263158D01*
X112500647Y-82217477D01*
X112528504Y-82165360D01*
X112545659Y-82108810D01*
X112551451Y-82050000D01*
X112551451Y-80350000D01*
X112547511Y-80309999D01*
X128615665Y-80309999D01*
X128547991Y-80377673D01*
X128406817Y-80588956D01*
X128309574Y-80823721D01*
X128260000Y-81072946D01*
X128260000Y-81327054D01*
X128309574Y-81576279D01*
X128406817Y-81811044D01*
X128547991Y-82022327D01*
X128727673Y-82202009D01*
X128938956Y-82343183D01*
X129173721Y-82440426D01*
X129422946Y-82490000D01*
X129677054Y-82490000D01*
X129926279Y-82440426D01*
X130161044Y-82343183D01*
X130372327Y-82202009D01*
X130552009Y-82022327D01*
X130693183Y-81811044D01*
X130790426Y-81576279D01*
X130825000Y-81402464D01*
X130859574Y-81576279D01*
X130956817Y-81811044D01*
X131097991Y-82022327D01*
X131277673Y-82202009D01*
X131488956Y-82343183D01*
X131723721Y-82440426D01*
X131972946Y-82490000D01*
X132227054Y-82490000D01*
X132476279Y-82440426D01*
X132711044Y-82343183D01*
X132922327Y-82202009D01*
X133102009Y-82022327D01*
X133243183Y-81811044D01*
X133340426Y-81576279D01*
X133390000Y-81327054D01*
X133390000Y-81072946D01*
X133340426Y-80823721D01*
X133243183Y-80588956D01*
X133102009Y-80377673D01*
X132922327Y-80197991D01*
X132711044Y-80056817D01*
X132476279Y-79959574D01*
X132227054Y-79910000D01*
X131972946Y-79910000D01*
X131723721Y-79959574D01*
X131488956Y-80056817D01*
X131336501Y-80158684D01*
X130568012Y-79390195D01*
X130550789Y-79369209D01*
X130467041Y-79300478D01*
X130371493Y-79249407D01*
X130267818Y-79217957D01*
X130187017Y-79209999D01*
X130187007Y-79209999D01*
X130159999Y-79207339D01*
X130132991Y-79209999D01*
X107787009Y-79209999D01*
X107760001Y-79207339D01*
X107732993Y-79209999D01*
X107732983Y-79209999D01*
X107652182Y-79217957D01*
X107548507Y-79249407D01*
X107453853Y-79300000D01*
X107452959Y-79300478D01*
X107390196Y-79351986D01*
X107390191Y-79351991D01*
X107369211Y-79369209D01*
X107351993Y-79390189D01*
X106649225Y-80092957D01*
X106433265Y-80050000D01*
X106206735Y-80050000D01*
X105984557Y-80094194D01*
X105775271Y-80180884D01*
X105586918Y-80306737D01*
X105426737Y-80466918D01*
X105300884Y-80655271D01*
X105214194Y-80864557D01*
X105170000Y-81086735D01*
X102390000Y-81086735D01*
X102345806Y-80864557D01*
X102259116Y-80655271D01*
X102133263Y-80466918D01*
X101973082Y-80306737D01*
X101784729Y-80180884D01*
X101575443Y-80094194D01*
X101353265Y-80050000D01*
X101126735Y-80050000D01*
X100904557Y-80094194D01*
X100695271Y-80180884D01*
X100506918Y-80306737D01*
X100346737Y-80466918D01*
X100220884Y-80655271D01*
X100134194Y-80864557D01*
X100090000Y-81086735D01*
X91100000Y-81086735D01*
X91100000Y-76773470D01*
X92700000Y-76773470D01*
X92700000Y-77226530D01*
X92788387Y-77670885D01*
X92961766Y-78089459D01*
X93213473Y-78466165D01*
X93533835Y-78786527D01*
X93910541Y-79038234D01*
X94329115Y-79211613D01*
X94773470Y-79300000D01*
X95226530Y-79300000D01*
X95670885Y-79211613D01*
X96089459Y-79038234D01*
X96466165Y-78786527D01*
X96786527Y-78466165D01*
X97038234Y-78089459D01*
X97211613Y-77670885D01*
X97300000Y-77226530D01*
X97300000Y-76773470D01*
X97211613Y-76329115D01*
X97038234Y-75910541D01*
X96786527Y-75533835D01*
X96466165Y-75213473D01*
X96089459Y-74961766D01*
X95670885Y-74788387D01*
X95226530Y-74700000D01*
X94773470Y-74700000D01*
X94329115Y-74788387D01*
X93910541Y-74961766D01*
X93533835Y-75213473D01*
X93213473Y-75533835D01*
X92961766Y-75910541D01*
X92788387Y-76329115D01*
X92700000Y-76773470D01*
X91100000Y-76773470D01*
X91100000Y-73100000D01*
X152900000Y-73100000D01*
X152900000Y-113900000D01*
%TA.AperFunction,Conductor*%
G36*
X152900000Y-113900000D02*
G01*
X91100000Y-113900000D01*
X91100000Y-110150000D01*
X103508549Y-110150000D01*
X103508549Y-111850000D01*
X103514341Y-111908810D01*
X103531496Y-111965360D01*
X103559353Y-112017477D01*
X103596842Y-112063158D01*
X103642523Y-112100647D01*
X103694640Y-112128504D01*
X103751190Y-112145659D01*
X103810000Y-112151451D01*
X105510000Y-112151451D01*
X105568810Y-112145659D01*
X105625360Y-112128504D01*
X105677477Y-112100647D01*
X105723158Y-112063158D01*
X105760647Y-112017477D01*
X105788504Y-111965360D01*
X105805659Y-111908810D01*
X105811451Y-111850000D01*
X105811451Y-110886735D01*
X106050000Y-110886735D01*
X106050000Y-111113265D01*
X106094194Y-111335443D01*
X106180884Y-111544729D01*
X106306737Y-111733082D01*
X106466918Y-111893263D01*
X106655271Y-112019116D01*
X106864557Y-112105806D01*
X107086735Y-112150000D01*
X107313265Y-112150000D01*
X107535443Y-112105806D01*
X107655172Y-112056212D01*
X108509727Y-112910767D01*
X108523037Y-112926985D01*
X108587751Y-112980095D01*
X108661582Y-113019558D01*
X108661584Y-113019559D01*
X108741697Y-113043861D01*
X108825011Y-113052067D01*
X108845885Y-113050011D01*
X120694122Y-113050011D01*
X120714989Y-113052066D01*
X120735856Y-113050011D01*
X120735863Y-113050011D01*
X120798303Y-113043861D01*
X120878416Y-113019559D01*
X120952249Y-112980095D01*
X121016963Y-112926985D01*
X121030273Y-112910767D01*
X121884828Y-112056212D01*
X122004557Y-112105806D01*
X122226735Y-112150000D01*
X122453265Y-112150000D01*
X122675443Y-112105806D01*
X122884729Y-112019116D01*
X123073082Y-111893263D01*
X123233263Y-111733082D01*
X123359116Y-111544729D01*
X123445806Y-111335443D01*
X123490000Y-111113265D01*
X123490000Y-110886735D01*
X123445806Y-110664557D01*
X123359116Y-110455271D01*
X123233263Y-110266918D01*
X123073082Y-110106737D01*
X122884729Y-109980884D01*
X122675443Y-109894194D01*
X122453265Y-109850000D01*
X122226735Y-109850000D01*
X122004557Y-109894194D01*
X121795271Y-109980884D01*
X121606918Y-110106737D01*
X121446737Y-110266918D01*
X121320884Y-110455271D01*
X121234194Y-110664557D01*
X121190000Y-110886735D01*
X121190000Y-111113265D01*
X121234194Y-111335443D01*
X121283788Y-111455172D01*
X120951451Y-111787509D01*
X120951451Y-110150000D01*
X120945659Y-110091190D01*
X120928504Y-110034640D01*
X120900647Y-109982523D01*
X120863158Y-109936842D01*
X120817477Y-109899353D01*
X120765360Y-109871496D01*
X120708810Y-109854341D01*
X120650000Y-109848549D01*
X118950000Y-109848549D01*
X118891190Y-109854341D01*
X118834640Y-109871496D01*
X118782523Y-109899353D01*
X118736842Y-109936842D01*
X118699353Y-109982523D01*
X118671496Y-110034640D01*
X118654341Y-110091190D01*
X118648549Y-110150000D01*
X118648549Y-111550411D01*
X118448959Y-111750001D01*
X115696344Y-111750001D01*
X115713263Y-111733082D01*
X115839116Y-111544729D01*
X115925806Y-111335443D01*
X115970000Y-111113265D01*
X115970000Y-110886735D01*
X115925806Y-110664557D01*
X115839116Y-110455271D01*
X115713263Y-110266918D01*
X115553082Y-110106737D01*
X115364729Y-109980884D01*
X115155443Y-109894194D01*
X114933265Y-109850000D01*
X114706735Y-109850000D01*
X114484557Y-109894194D01*
X114275271Y-109980884D01*
X114086918Y-110106737D01*
X113926737Y-110266918D01*
X113800884Y-110455271D01*
X113714194Y-110664557D01*
X113670000Y-110886735D01*
X113670000Y-111113265D01*
X113714194Y-111335443D01*
X113800884Y-111544729D01*
X113926737Y-111733082D01*
X113943656Y-111750001D01*
X111091042Y-111750001D01*
X110796212Y-111455172D01*
X110845806Y-111335443D01*
X110890000Y-111113265D01*
X110890000Y-110886735D01*
X110845806Y-110664557D01*
X110759116Y-110455271D01*
X110633263Y-110266918D01*
X110473082Y-110106737D01*
X110284729Y-109980884D01*
X110075443Y-109894194D01*
X109853265Y-109850000D01*
X109626735Y-109850000D01*
X109404557Y-109894194D01*
X109195271Y-109980884D01*
X109006918Y-110106737D01*
X108846737Y-110266918D01*
X108720884Y-110455271D01*
X108634194Y-110664557D01*
X108590000Y-110886735D01*
X108590000Y-111113265D01*
X108634194Y-111335443D01*
X108720884Y-111544729D01*
X108846737Y-111733082D01*
X109006918Y-111893263D01*
X109195271Y-112019116D01*
X109404557Y-112105806D01*
X109626735Y-112150000D01*
X109853265Y-112150000D01*
X110075443Y-112105806D01*
X110195172Y-112056212D01*
X110338970Y-112200011D01*
X109001051Y-112200011D01*
X108256212Y-111455172D01*
X108305806Y-111335443D01*
X108350000Y-111113265D01*
X108350000Y-110886735D01*
X108305806Y-110664557D01*
X108219116Y-110455271D01*
X108093263Y-110266918D01*
X107933082Y-110106737D01*
X107744729Y-109980884D01*
X107535443Y-109894194D01*
X107313265Y-109850000D01*
X107086735Y-109850000D01*
X106864557Y-109894194D01*
X106655271Y-109980884D01*
X106466918Y-110106737D01*
X106306737Y-110266918D01*
X106180884Y-110455271D01*
X106094194Y-110664557D01*
X106050000Y-110886735D01*
X105811451Y-110886735D01*
X105811451Y-110150000D01*
X105805659Y-110091190D01*
X105788504Y-110034640D01*
X105760647Y-109982523D01*
X105723158Y-109936842D01*
X105677477Y-109899353D01*
X105625360Y-109871496D01*
X105568810Y-109854341D01*
X105510000Y-109848549D01*
X103810000Y-109848549D01*
X103751190Y-109854341D01*
X103694640Y-109871496D01*
X103642523Y-109899353D01*
X103596842Y-109936842D01*
X103559353Y-109982523D01*
X103531496Y-110034640D01*
X103514341Y-110091190D01*
X103508549Y-110150000D01*
X91100000Y-110150000D01*
X91100000Y-109773470D01*
X135700000Y-109773470D01*
X135700000Y-110226530D01*
X135788387Y-110670885D01*
X135961766Y-111089459D01*
X136213473Y-111466165D01*
X136533835Y-111786527D01*
X136910541Y-112038234D01*
X137329115Y-112211613D01*
X137773470Y-112300000D01*
X138226530Y-112300000D01*
X138670885Y-112211613D01*
X139089459Y-112038234D01*
X139466165Y-111786527D01*
X139786527Y-111466165D01*
X140038234Y-111089459D01*
X140211613Y-110670885D01*
X140300000Y-110226530D01*
X140300000Y-109773470D01*
X140211613Y-109329115D01*
X140038234Y-108910541D01*
X139786527Y-108533835D01*
X139466165Y-108213473D01*
X139089459Y-107961766D01*
X138670885Y-107788387D01*
X138226530Y-107700000D01*
X137773470Y-107700000D01*
X137329115Y-107788387D01*
X136910541Y-107961766D01*
X136533835Y-108213473D01*
X136213473Y-108533835D01*
X135961766Y-108910541D01*
X135788387Y-109329115D01*
X135700000Y-109773470D01*
X91100000Y-109773470D01*
X91100000Y-104123328D01*
X123350000Y-104123328D01*
X123350000Y-104296672D01*
X123383818Y-104466687D01*
X123450154Y-104626836D01*
X123546459Y-104770967D01*
X123669033Y-104893541D01*
X123813164Y-104989846D01*
X123973313Y-105056182D01*
X124143328Y-105090000D01*
X124316672Y-105090000D01*
X124486687Y-105056182D01*
X124646836Y-104989846D01*
X124790967Y-104893541D01*
X124913541Y-104770967D01*
X125009846Y-104626836D01*
X125076182Y-104466687D01*
X125110000Y-104296672D01*
X125110000Y-104123328D01*
X125076182Y-103953313D01*
X125009846Y-103793164D01*
X124913541Y-103649033D01*
X124790967Y-103526459D01*
X124646836Y-103430154D01*
X124486687Y-103363818D01*
X124316672Y-103330000D01*
X124143328Y-103330000D01*
X123973313Y-103363818D01*
X123813164Y-103430154D01*
X123669033Y-103526459D01*
X123546459Y-103649033D01*
X123450154Y-103793164D01*
X123383818Y-103953313D01*
X123350000Y-104123328D01*
X91100000Y-104123328D01*
X91100000Y-81086735D01*
X100090000Y-81086735D01*
X100090000Y-81313265D01*
X100134194Y-81535443D01*
X100220884Y-81744729D01*
X100346737Y-81933082D01*
X100506918Y-82093263D01*
X100695271Y-82219116D01*
X100904557Y-82305806D01*
X101126735Y-82350000D01*
X101353265Y-82350000D01*
X101575443Y-82305806D01*
X101695172Y-82256212D01*
X103700001Y-84261041D01*
X103700002Y-96904124D01*
X103697946Y-96925001D01*
X103706151Y-97008315D01*
X103722654Y-97062716D01*
X103730454Y-97088428D01*
X103769918Y-97162261D01*
X103823028Y-97226975D01*
X103839240Y-97240280D01*
X107704980Y-101106020D01*
X107700000Y-101131056D01*
X107700000Y-101268944D01*
X107726901Y-101404182D01*
X107779668Y-101531574D01*
X107856274Y-101646224D01*
X107953776Y-101743726D01*
X108068426Y-101820332D01*
X108195818Y-101873099D01*
X108331056Y-101900000D01*
X108468944Y-101900000D01*
X108604182Y-101873099D01*
X108731574Y-101820332D01*
X108846224Y-101743726D01*
X108943726Y-101646224D01*
X108985751Y-101583328D01*
X123350000Y-101583328D01*
X123350000Y-101756672D01*
X123383818Y-101926687D01*
X123450154Y-102086836D01*
X123546459Y-102230967D01*
X123669033Y-102353541D01*
X123813164Y-102449846D01*
X123973313Y-102516182D01*
X124143328Y-102550000D01*
X124316672Y-102550000D01*
X124486687Y-102516182D01*
X124646836Y-102449846D01*
X124790967Y-102353541D01*
X124913541Y-102230967D01*
X125009846Y-102086836D01*
X125076182Y-101926687D01*
X125110000Y-101756672D01*
X125110000Y-101583328D01*
X131290000Y-101583328D01*
X131290000Y-101756672D01*
X131323818Y-101926687D01*
X131390154Y-102086836D01*
X131486459Y-102230967D01*
X131609033Y-102353541D01*
X131753164Y-102449846D01*
X131913313Y-102516182D01*
X132083328Y-102550000D01*
X132256672Y-102550000D01*
X132426687Y-102516182D01*
X132586836Y-102449846D01*
X132730967Y-102353541D01*
X132853541Y-102230967D01*
X132912508Y-102142716D01*
X146200000Y-102142716D01*
X146200000Y-102497284D01*
X146269173Y-102845041D01*
X146404861Y-103172620D01*
X146601849Y-103467433D01*
X146852567Y-103718151D01*
X147147380Y-103915139D01*
X147474959Y-104050827D01*
X147822716Y-104120000D01*
X148177284Y-104120000D01*
X148525041Y-104050827D01*
X148852620Y-103915139D01*
X149147433Y-103718151D01*
X149398151Y-103467433D01*
X149595139Y-103172620D01*
X149730827Y-102845041D01*
X149800000Y-102497284D01*
X149800000Y-102142716D01*
X149730827Y-101794959D01*
X149595139Y-101467380D01*
X149398151Y-101172567D01*
X149147433Y-100921849D01*
X148852620Y-100724861D01*
X148525041Y-100589173D01*
X148177284Y-100520000D01*
X147822716Y-100520000D01*
X147474959Y-100589173D01*
X147147380Y-100724861D01*
X146852567Y-100921849D01*
X146601849Y-101172567D01*
X146404861Y-101467380D01*
X146269173Y-101794959D01*
X146200000Y-102142716D01*
X132912508Y-102142716D01*
X132949846Y-102086836D01*
X133016182Y-101926687D01*
X133050000Y-101756672D01*
X133050000Y-101583328D01*
X133016182Y-101413313D01*
X132949846Y-101253164D01*
X132853541Y-101109033D01*
X132730967Y-100986459D01*
X132586836Y-100890154D01*
X132426687Y-100823818D01*
X132256672Y-100790000D01*
X132083328Y-100790000D01*
X131913313Y-100823818D01*
X131753164Y-100890154D01*
X131609033Y-100986459D01*
X131486459Y-101109033D01*
X131390154Y-101253164D01*
X131323818Y-101413313D01*
X131290000Y-101583328D01*
X125110000Y-101583328D01*
X125076182Y-101413313D01*
X125009846Y-101253164D01*
X124913541Y-101109033D01*
X124790967Y-100986459D01*
X124646836Y-100890154D01*
X124486687Y-100823818D01*
X124316672Y-100790000D01*
X124143328Y-100790000D01*
X123973313Y-100823818D01*
X123813164Y-100890154D01*
X123669033Y-100986459D01*
X123546459Y-101109033D01*
X123450154Y-101253164D01*
X123383818Y-101413313D01*
X123350000Y-101583328D01*
X108985751Y-101583328D01*
X109020332Y-101531574D01*
X109073099Y-101404182D01*
X109100000Y-101268944D01*
X109100000Y-101131056D01*
X109073099Y-100995818D01*
X109020332Y-100868426D01*
X108943726Y-100753776D01*
X108846224Y-100656274D01*
X108731574Y-100579668D01*
X108604182Y-100526901D01*
X108468944Y-100500000D01*
X108331056Y-100500000D01*
X108306020Y-100504980D01*
X104550001Y-96748961D01*
X104550001Y-84105875D01*
X104552057Y-84085001D01*
X104543851Y-84001687D01*
X104519549Y-83921574D01*
X104480085Y-83847741D01*
X104426975Y-83783027D01*
X104410759Y-83769719D01*
X102296212Y-81655172D01*
X102345806Y-81535443D01*
X102390000Y-81313265D01*
X102390000Y-81086735D01*
X105170000Y-81086735D01*
X105170000Y-81313265D01*
X105214194Y-81535443D01*
X105300884Y-81744729D01*
X105426737Y-81933082D01*
X105586918Y-82093263D01*
X105775271Y-82219116D01*
X105984557Y-82305806D01*
X106206735Y-82350000D01*
X106433265Y-82350000D01*
X106655443Y-82305806D01*
X106864729Y-82219116D01*
X107053082Y-82093263D01*
X107213263Y-81933082D01*
X107339116Y-81744729D01*
X107425806Y-81535443D01*
X107470000Y-81313265D01*
X107470000Y-81086735D01*
X107427043Y-80870775D01*
X107987819Y-80309999D01*
X108123656Y-80309999D01*
X107966737Y-80466918D01*
X107840884Y-80655271D01*
X107754194Y-80864557D01*
X107710000Y-81086735D01*
X107710000Y-81313265D01*
X107754194Y-81535443D01*
X107840884Y-81744729D01*
X107966737Y-81933082D01*
X108126918Y-82093263D01*
X108315271Y-82219116D01*
X108435000Y-82268710D01*
X108435001Y-97969123D01*
X108432945Y-97990000D01*
X108441150Y-98073314D01*
X108458667Y-98131056D01*
X108465453Y-98153427D01*
X108504917Y-98227260D01*
X108532454Y-98260813D01*
X108539127Y-98268944D01*
X108558027Y-98291974D01*
X108574239Y-98305279D01*
X109339980Y-99071021D01*
X109335000Y-99096056D01*
X109335000Y-99233944D01*
X109361901Y-99369182D01*
X109414668Y-99496574D01*
X109491274Y-99611224D01*
X109588776Y-99708726D01*
X109703426Y-99785332D01*
X109830818Y-99838099D01*
X109966056Y-99865000D01*
X110103944Y-99865000D01*
X110239182Y-99838099D01*
X110366574Y-99785332D01*
X110481224Y-99708726D01*
X110578726Y-99611224D01*
X110655332Y-99496574D01*
X110708099Y-99369182D01*
X110735000Y-99233944D01*
X110735000Y-99096056D01*
X110724512Y-99043328D01*
X123350000Y-99043328D01*
X123350000Y-99216672D01*
X123383818Y-99386687D01*
X123450154Y-99546836D01*
X123546459Y-99690967D01*
X123669033Y-99813541D01*
X123813164Y-99909846D01*
X123973313Y-99976182D01*
X124143328Y-100010000D01*
X124316672Y-100010000D01*
X124486687Y-99976182D01*
X124646836Y-99909846D01*
X124790967Y-99813541D01*
X124913541Y-99690967D01*
X125009846Y-99546836D01*
X125076182Y-99386687D01*
X125110000Y-99216672D01*
X125110000Y-99043328D01*
X131290000Y-99043328D01*
X131290000Y-99216672D01*
X131323818Y-99386687D01*
X131390154Y-99546836D01*
X131486459Y-99690967D01*
X131609033Y-99813541D01*
X131753164Y-99909846D01*
X131913313Y-99976182D01*
X132083328Y-100010000D01*
X132256672Y-100010000D01*
X132426687Y-99976182D01*
X132586836Y-99909846D01*
X132730967Y-99813541D01*
X132853541Y-99690967D01*
X132949846Y-99546836D01*
X133016182Y-99386687D01*
X133050000Y-99216672D01*
X133050000Y-99043328D01*
X133016182Y-98873313D01*
X132949846Y-98713164D01*
X132853541Y-98569033D01*
X132730967Y-98446459D01*
X132586836Y-98350154D01*
X132426687Y-98283818D01*
X132256672Y-98250000D01*
X132083328Y-98250000D01*
X131913313Y-98283818D01*
X131753164Y-98350154D01*
X131609033Y-98446459D01*
X131486459Y-98569033D01*
X131390154Y-98713164D01*
X131323818Y-98873313D01*
X131290000Y-99043328D01*
X125110000Y-99043328D01*
X125076182Y-98873313D01*
X125009846Y-98713164D01*
X124913541Y-98569033D01*
X124790967Y-98446459D01*
X124646836Y-98350154D01*
X124486687Y-98283818D01*
X124316672Y-98250000D01*
X124143328Y-98250000D01*
X123973313Y-98283818D01*
X123813164Y-98350154D01*
X123669033Y-98446459D01*
X123546459Y-98569033D01*
X123450154Y-98713164D01*
X123383818Y-98873313D01*
X123350000Y-99043328D01*
X110724512Y-99043328D01*
X110708099Y-98960818D01*
X110655332Y-98833426D01*
X110578726Y-98718776D01*
X110481224Y-98621274D01*
X110366574Y-98544668D01*
X110239182Y-98491901D01*
X110103944Y-98465000D01*
X109966056Y-98465000D01*
X109941021Y-98469980D01*
X109285000Y-97813960D01*
X109285000Y-82268710D01*
X109404729Y-82219116D01*
X109593082Y-82093263D01*
X109753263Y-81933082D01*
X109879116Y-81744729D01*
X109965806Y-81535443D01*
X110010000Y-81313265D01*
X110010000Y-81086735D01*
X109965806Y-80864557D01*
X109879116Y-80655271D01*
X109753263Y-80466918D01*
X109596344Y-80309999D01*
X110252489Y-80309999D01*
X110248549Y-80350000D01*
X110248549Y-82050000D01*
X110254341Y-82108810D01*
X110271496Y-82165360D01*
X110299353Y-82217477D01*
X110336842Y-82263158D01*
X110382523Y-82300647D01*
X110434640Y-82328504D01*
X110491190Y-82345659D01*
X110550000Y-82351451D01*
X110975000Y-82351451D01*
X110975001Y-95779123D01*
X110972945Y-95800000D01*
X110981150Y-95883314D01*
X111001741Y-95951190D01*
X111005453Y-95963427D01*
X111044917Y-96037260D01*
X111098027Y-96101974D01*
X111114239Y-96115279D01*
X113104980Y-98106020D01*
X113100000Y-98131056D01*
X113100000Y-98268944D01*
X113126901Y-98404182D01*
X113179668Y-98531574D01*
X113256274Y-98646224D01*
X113353776Y-98743726D01*
X113468426Y-98820332D01*
X113595818Y-98873099D01*
X113731056Y-98900000D01*
X113868944Y-98900000D01*
X114004182Y-98873099D01*
X114131574Y-98820332D01*
X114246224Y-98743726D01*
X114343726Y-98646224D01*
X114420332Y-98531574D01*
X114473099Y-98404182D01*
X114500000Y-98268944D01*
X114500000Y-98131056D01*
X114473099Y-97995818D01*
X114420332Y-97868426D01*
X114343726Y-97753776D01*
X114246224Y-97656274D01*
X114131574Y-97579668D01*
X114004182Y-97526901D01*
X113868944Y-97500000D01*
X113731056Y-97500000D01*
X113706020Y-97504980D01*
X112211040Y-96010000D01*
X123348549Y-96010000D01*
X123348549Y-97170000D01*
X123354341Y-97228810D01*
X123371496Y-97285360D01*
X123399353Y-97337477D01*
X123436842Y-97383158D01*
X123482523Y-97420647D01*
X123534640Y-97448504D01*
X123591190Y-97465659D01*
X123650000Y-97471451D01*
X124810000Y-97471451D01*
X124868810Y-97465659D01*
X124925360Y-97448504D01*
X124977477Y-97420647D01*
X125023158Y-97383158D01*
X125060647Y-97337477D01*
X125088504Y-97285360D01*
X125105659Y-97228810D01*
X125111451Y-97170000D01*
X125111451Y-96503328D01*
X131290000Y-96503328D01*
X131290000Y-96676672D01*
X131323818Y-96846687D01*
X131390154Y-97006836D01*
X131486459Y-97150967D01*
X131609033Y-97273541D01*
X131753164Y-97369846D01*
X131913313Y-97436182D01*
X132083328Y-97470000D01*
X132256672Y-97470000D01*
X132426687Y-97436182D01*
X132586836Y-97369846D01*
X132730967Y-97273541D01*
X132853541Y-97150967D01*
X132912508Y-97062716D01*
X146200000Y-97062716D01*
X146200000Y-97417284D01*
X146269173Y-97765041D01*
X146404861Y-98092620D01*
X146601849Y-98387433D01*
X146852567Y-98638151D01*
X147147380Y-98835139D01*
X147474959Y-98970827D01*
X147822716Y-99040000D01*
X148177284Y-99040000D01*
X148525041Y-98970827D01*
X148852620Y-98835139D01*
X149147433Y-98638151D01*
X149398151Y-98387433D01*
X149595139Y-98092620D01*
X149730827Y-97765041D01*
X149800000Y-97417284D01*
X149800000Y-97062716D01*
X149730827Y-96714959D01*
X149595139Y-96387380D01*
X149398151Y-96092567D01*
X149147433Y-95841849D01*
X148852620Y-95644861D01*
X148525041Y-95509173D01*
X148177284Y-95440000D01*
X147822716Y-95440000D01*
X147474959Y-95509173D01*
X147147380Y-95644861D01*
X146852567Y-95841849D01*
X146601849Y-96092567D01*
X146404861Y-96387380D01*
X146269173Y-96714959D01*
X146200000Y-97062716D01*
X132912508Y-97062716D01*
X132949846Y-97006836D01*
X133016182Y-96846687D01*
X133050000Y-96676672D01*
X133050000Y-96503328D01*
X133016182Y-96333313D01*
X132949846Y-96173164D01*
X132853541Y-96029033D01*
X132730967Y-95906459D01*
X132586836Y-95810154D01*
X132426687Y-95743818D01*
X132256672Y-95710000D01*
X132083328Y-95710000D01*
X131913313Y-95743818D01*
X131753164Y-95810154D01*
X131609033Y-95906459D01*
X131486459Y-96029033D01*
X131390154Y-96173164D01*
X131323818Y-96333313D01*
X131290000Y-96503328D01*
X125111451Y-96503328D01*
X125111451Y-96010000D01*
X125105659Y-95951190D01*
X125088504Y-95894640D01*
X125060647Y-95842523D01*
X125023158Y-95796842D01*
X124977477Y-95759353D01*
X124925360Y-95731496D01*
X124868810Y-95714341D01*
X124810000Y-95708549D01*
X123650000Y-95708549D01*
X123591190Y-95714341D01*
X123534640Y-95731496D01*
X123482523Y-95759353D01*
X123436842Y-95796842D01*
X123399353Y-95842523D01*
X123371496Y-95894640D01*
X123354341Y-95951190D01*
X123348549Y-96010000D01*
X112211040Y-96010000D01*
X111825000Y-95623960D01*
X111825000Y-91982716D01*
X146200000Y-91982716D01*
X146200000Y-92337284D01*
X146269173Y-92685041D01*
X146404861Y-93012620D01*
X146601849Y-93307433D01*
X146852567Y-93558151D01*
X147147380Y-93755139D01*
X147474959Y-93890827D01*
X147822716Y-93960000D01*
X148177284Y-93960000D01*
X148525041Y-93890827D01*
X148852620Y-93755139D01*
X149147433Y-93558151D01*
X149398151Y-93307433D01*
X149595139Y-93012620D01*
X149730827Y-92685041D01*
X149800000Y-92337284D01*
X149800000Y-91982716D01*
X149730827Y-91634959D01*
X149595139Y-91307380D01*
X149398151Y-91012567D01*
X149147433Y-90761849D01*
X148852620Y-90564861D01*
X148525041Y-90429173D01*
X148177284Y-90360000D01*
X147822716Y-90360000D01*
X147474959Y-90429173D01*
X147147380Y-90564861D01*
X146852567Y-90761849D01*
X146601849Y-91012567D01*
X146404861Y-91307380D01*
X146269173Y-91634959D01*
X146200000Y-91982716D01*
X111825000Y-91982716D01*
X111825000Y-82351451D01*
X112250000Y-82351451D01*
X112308810Y-82345659D01*
X112365360Y-82328504D01*
X112417477Y-82300647D01*
X112463158Y-82263158D01*
X112500647Y-82217477D01*
X112528504Y-82165360D01*
X112545659Y-82108810D01*
X112551451Y-82050000D01*
X112551451Y-80350000D01*
X112547511Y-80309999D01*
X128615665Y-80309999D01*
X128547991Y-80377673D01*
X128406817Y-80588956D01*
X128309574Y-80823721D01*
X128260000Y-81072946D01*
X128260000Y-81327054D01*
X128309574Y-81576279D01*
X128406817Y-81811044D01*
X128547991Y-82022327D01*
X128727673Y-82202009D01*
X128938956Y-82343183D01*
X129173721Y-82440426D01*
X129422946Y-82490000D01*
X129677054Y-82490000D01*
X129926279Y-82440426D01*
X130161044Y-82343183D01*
X130372327Y-82202009D01*
X130552009Y-82022327D01*
X130693183Y-81811044D01*
X130790426Y-81576279D01*
X130825000Y-81402464D01*
X130859574Y-81576279D01*
X130956817Y-81811044D01*
X131097991Y-82022327D01*
X131277673Y-82202009D01*
X131488956Y-82343183D01*
X131723721Y-82440426D01*
X131972946Y-82490000D01*
X132227054Y-82490000D01*
X132476279Y-82440426D01*
X132711044Y-82343183D01*
X132922327Y-82202009D01*
X133102009Y-82022327D01*
X133243183Y-81811044D01*
X133340426Y-81576279D01*
X133390000Y-81327054D01*
X133390000Y-81072946D01*
X133340426Y-80823721D01*
X133243183Y-80588956D01*
X133102009Y-80377673D01*
X132922327Y-80197991D01*
X132711044Y-80056817D01*
X132476279Y-79959574D01*
X132227054Y-79910000D01*
X131972946Y-79910000D01*
X131723721Y-79959574D01*
X131488956Y-80056817D01*
X131336501Y-80158684D01*
X130568012Y-79390195D01*
X130550789Y-79369209D01*
X130467041Y-79300478D01*
X130371493Y-79249407D01*
X130267818Y-79217957D01*
X130187017Y-79209999D01*
X130187007Y-79209999D01*
X130159999Y-79207339D01*
X130132991Y-79209999D01*
X107787009Y-79209999D01*
X107760001Y-79207339D01*
X107732993Y-79209999D01*
X107732983Y-79209999D01*
X107652182Y-79217957D01*
X107548507Y-79249407D01*
X107453853Y-79300000D01*
X107452959Y-79300478D01*
X107390196Y-79351986D01*
X107390191Y-79351991D01*
X107369211Y-79369209D01*
X107351993Y-79390189D01*
X106649225Y-80092957D01*
X106433265Y-80050000D01*
X106206735Y-80050000D01*
X105984557Y-80094194D01*
X105775271Y-80180884D01*
X105586918Y-80306737D01*
X105426737Y-80466918D01*
X105300884Y-80655271D01*
X105214194Y-80864557D01*
X105170000Y-81086735D01*
X102390000Y-81086735D01*
X102345806Y-80864557D01*
X102259116Y-80655271D01*
X102133263Y-80466918D01*
X101973082Y-80306737D01*
X101784729Y-80180884D01*
X101575443Y-80094194D01*
X101353265Y-80050000D01*
X101126735Y-80050000D01*
X100904557Y-80094194D01*
X100695271Y-80180884D01*
X100506918Y-80306737D01*
X100346737Y-80466918D01*
X100220884Y-80655271D01*
X100134194Y-80864557D01*
X100090000Y-81086735D01*
X91100000Y-81086735D01*
X91100000Y-76773470D01*
X92700000Y-76773470D01*
X92700000Y-77226530D01*
X92788387Y-77670885D01*
X92961766Y-78089459D01*
X93213473Y-78466165D01*
X93533835Y-78786527D01*
X93910541Y-79038234D01*
X94329115Y-79211613D01*
X94773470Y-79300000D01*
X95226530Y-79300000D01*
X95670885Y-79211613D01*
X96089459Y-79038234D01*
X96466165Y-78786527D01*
X96786527Y-78466165D01*
X97038234Y-78089459D01*
X97211613Y-77670885D01*
X97300000Y-77226530D01*
X97300000Y-76773470D01*
X97211613Y-76329115D01*
X97038234Y-75910541D01*
X96786527Y-75533835D01*
X96466165Y-75213473D01*
X96089459Y-74961766D01*
X95670885Y-74788387D01*
X95226530Y-74700000D01*
X94773470Y-74700000D01*
X94329115Y-74788387D01*
X93910541Y-74961766D01*
X93533835Y-75213473D01*
X93213473Y-75533835D01*
X92961766Y-75910541D01*
X92788387Y-76329115D01*
X92700000Y-76773470D01*
X91100000Y-76773470D01*
X91100000Y-73100000D01*
X152900000Y-73100000D01*
X152900000Y-113900000D01*
G37*
%TD.AperFunction*%
M02*
